<?xml version="1.0" encoding="utf-8" standalone="no"?>
<!DOCTYPE svg PUBLIC "-//W3C//DTD SVG 1.1//EN"
  "http://www.w3.org/Graphics/SVG/1.1/DTD/svg11.dtd">
<svg xmlns:xlink="http://www.w3.org/1999/xlink" width="453.543307pt" height="272.125984pt" viewBox="0 0 453.543307 272.125984" xmlns="http://www.w3.org/2000/svg" version="1.1">
 <title>Local marginal income regions in the CES specialization</title>
 <metadata>
  <rdf:RDF xmlns:dc="http://purl.org/dc/elements/1.1/" xmlns:cc="http://creativecommons.org/ns#" xmlns:rdf="http://www.w3.org/1999/02/22-rdf-syntax-ns#">
   <cc:Work>
    <dc:type rdf:resource="http://purl.org/dc/dcmitype/StillImage"/>
    <dc:title>Local marginal income regions in the CES specialization</dc:title>
    <dc:date>2026-07-17T18:43:10.199803</dc:date>
    <dc:description>Analytical illustration; local marginal effects; not a calibration</dc:description>
    <dc:format>image/svg+xml</dc:format>
    <dc:creator>
     <cc:Agent>
      <dc:title>Matplotlib v3.10.8, https://matplotlib.org/</dc:title>
     </cc:Agent>
    </dc:creator>
   </cc:Work>
  </rdf:RDF>
 </metadata>
 <defs>
  <style type="text/css">*{stroke-linejoin: round; stroke-linecap: butt}</style>
 </defs>
 <g id="figure_1">
  <g id="patch_1">
   <path d="M 0 272.125984 
L 453.543307 272.125984 
L 453.543307 0 
L 0 0 
z
" style="fill: #ffffff"/>
  </g>
  <g id="axes_1">
   <g id="patch_2">
    <path d="M 56.692913 227.225197 
L 442.204724 227.225197 
L 442.204724 42.179528 
L 56.692913 42.179528 
z
" style="fill: #ffffff"/>
   </g>
   <g id="FillBetweenPolyCollection_1">
    <defs>
     <path id="m7054443244" d="M 56.692913 -83.451969 
L 56.692913 -44.900787 
L 57.463937 -44.900787 
L 58.234961 -44.900787 
L 59.005984 -44.900787 
L 59.777008 -44.900787 
L 60.548031 -44.900787 
L 61.319055 -44.900787 
L 62.090079 -44.900787 
L 62.861102 -44.900787 
L 63.632126 -44.900787 
L 64.40315 -44.900787 
L 65.174173 -44.900787 
L 65.945197 -44.900787 
L 66.71622 -44.900787 
L 67.487244 -44.900787 
L 68.258268 -44.900787 
L 69.029291 -44.900787 
L 69.800315 -44.900787 
L 70.571339 -44.900787 
L 71.342362 -44.900787 
L 72.113386 -44.900787 
L 72.884409 -44.900787 
L 73.655433 -44.900787 
L 74.426457 -44.900787 
L 75.19748 -44.900787 
L 75.968504 -44.900787 
L 76.739528 -44.900787 
L 77.510551 -44.900787 
L 78.281575 -44.900787 
L 79.052598 -44.900787 
L 79.823622 -44.900787 
L 80.594646 -44.900787 
L 81.365669 -44.900787 
L 82.136693 -44.900787 
L 82.907717 -44.900787 
L 83.67874 -44.900787 
L 84.449764 -44.900787 
L 85.220787 -44.900787 
L 85.991811 -44.900787 
L 86.762835 -44.900787 
L 87.533858 -44.900787 
L 88.304882 -44.900787 
L 89.075906 -44.900787 
L 89.846929 -44.900787 
L 90.617953 -44.900787 
L 91.388976 -44.900787 
L 92.16 -44.900787 
L 92.931024 -44.900787 
L 93.702047 -44.900787 
L 94.473071 -44.900787 
L 95.244094 -44.900787 
L 96.015118 -44.900787 
L 96.786142 -44.900787 
L 97.557165 -44.900787 
L 98.328189 -44.900787 
L 99.099213 -44.900787 
L 99.870236 -44.900787 
L 100.64126 -44.900787 
L 101.412283 -44.900787 
L 102.183307 -44.900787 
L 102.954331 -44.900787 
L 103.725354 -44.900787 
L 104.496378 -44.900787 
L 105.267402 -44.900787 
L 106.038425 -44.900787 
L 106.809449 -44.900787 
L 107.580472 -44.900787 
L 108.351496 -44.900787 
L 109.12252 -44.900787 
L 109.893543 -44.900787 
L 110.664567 -44.900787 
L 111.435591 -44.900787 
L 112.206614 -44.900787 
L 112.977638 -44.900787 
L 113.748661 -44.900787 
L 114.519685 -44.900787 
L 115.290709 -44.900787 
L 116.061732 -44.900787 
L 116.832756 -44.900787 
L 117.60378 -44.900787 
L 118.374803 -44.900787 
L 119.145827 -44.900787 
L 119.91685 -44.900787 
L 120.687874 -44.900787 
L 121.458898 -44.900787 
L 122.229921 -44.900787 
L 123.000945 -44.900787 
L 123.771969 -44.900787 
L 124.542992 -44.900787 
L 125.314016 -44.900787 
L 126.085039 -44.900787 
L 126.856063 -44.900787 
L 127.627087 -44.900787 
L 128.39811 -44.900787 
L 129.169134 -44.900787 
L 129.940157 -44.900787 
L 130.711181 -44.900787 
L 131.482205 -44.900787 
L 132.253228 -44.900787 
L 133.024252 -44.900787 
L 133.795276 -44.900787 
L 134.566299 -44.900787 
L 135.337323 -44.900787 
L 136.108346 -44.900787 
L 136.87937 -44.900787 
L 137.650394 -44.900787 
L 138.421417 -44.900787 
L 139.192441 -44.900787 
L 139.963465 -44.900787 
L 140.734488 -44.900787 
L 141.505512 -44.900787 
L 142.276535 -44.900787 
L 143.047559 -44.900787 
L 143.818583 -44.900787 
L 144.589606 -44.900787 
L 145.36063 -44.900787 
L 146.131654 -44.900787 
L 146.902677 -44.900787 
L 147.673701 -44.900787 
L 148.444724 -44.900787 
L 149.215748 -44.900787 
L 149.986772 -44.900787 
L 150.757795 -44.900787 
L 151.528819 -44.900787 
L 152.299843 -44.900787 
L 153.070866 -44.900787 
L 153.84189 -44.900787 
L 154.612913 -44.900787 
L 155.383937 -44.900787 
L 156.154961 -44.900787 
L 156.925984 -44.900787 
L 157.697008 -44.900787 
L 158.468031 -44.900787 
L 159.239055 -44.900787 
L 160.010079 -44.900787 
L 160.781102 -44.900787 
L 161.552126 -44.900787 
L 162.32315 -44.900787 
L 163.094173 -44.900787 
L 163.865197 -44.900787 
L 164.63622 -44.900787 
L 165.407244 -44.900787 
L 166.178268 -44.900787 
L 166.949291 -44.900787 
L 167.720315 -44.900787 
L 168.491339 -44.900787 
L 169.262362 -44.900787 
L 170.033386 -44.900787 
L 170.804409 -44.900787 
L 171.575433 -44.900787 
L 172.346457 -44.900787 
L 173.11748 -44.900787 
L 173.888504 -44.900787 
L 174.659528 -44.900787 
L 175.430551 -44.900787 
L 176.201575 -44.900787 
L 176.972598 -44.900787 
L 177.743622 -44.900787 
L 178.514646 -44.900787 
L 179.285669 -44.900787 
L 180.056693 -44.900787 
L 180.827717 -44.900787 
L 181.59874 -44.900787 
L 182.369764 -44.900787 
L 183.140787 -44.900787 
L 183.911811 -44.900787 
L 184.682835 -44.900787 
L 185.453858 -44.900787 
L 186.224882 -44.900787 
L 186.995906 -44.900787 
L 187.766929 -44.900787 
L 188.537953 -44.900787 
L 189.308976 -44.900787 
L 190.08 -44.900787 
L 190.851024 -44.900787 
L 191.622047 -44.900787 
L 192.393071 -44.900787 
L 193.164094 -44.900787 
L 193.935118 -44.900787 
L 194.706142 -44.900787 
L 195.477165 -44.900787 
L 196.248189 -44.900787 
L 197.019213 -44.900787 
L 197.790236 -44.900787 
L 198.56126 -44.900787 
L 199.332283 -44.900787 
L 200.103307 -44.900787 
L 200.874331 -44.900787 
L 201.645354 -44.900787 
L 202.416378 -44.900787 
L 203.187402 -44.900787 
L 203.958425 -44.900787 
L 204.729449 -44.900787 
L 205.500472 -44.900787 
L 206.271496 -44.900787 
L 207.04252 -44.900787 
L 207.813543 -44.900787 
L 208.584567 -44.900787 
L 209.355591 -44.900787 
L 210.126614 -44.900787 
L 210.897638 -44.900787 
L 211.668661 -44.900787 
L 212.439685 -44.900787 
L 213.210709 -44.900787 
L 213.981732 -44.900787 
L 214.752756 -44.900787 
L 215.52378 -44.900787 
L 216.294803 -44.900787 
L 217.065827 -44.900787 
L 217.83685 -44.900787 
L 218.607874 -44.900787 
L 219.378898 -44.900787 
L 220.149921 -44.900787 
L 220.920945 -44.900787 
L 221.691969 -44.900787 
L 222.462992 -44.900787 
L 223.234016 -44.900787 
L 224.005039 -44.900787 
L 224.776063 -44.900787 
L 225.547087 -44.900787 
L 226.31811 -44.900787 
L 227.089134 -44.900787 
L 227.860157 -44.900787 
L 228.631181 -44.900787 
L 229.402205 -44.900787 
L 230.173228 -44.900787 
L 230.944252 -44.900787 
L 231.715276 -44.900787 
L 232.486299 -44.900787 
L 233.257323 -44.900787 
L 234.028346 -44.900787 
L 234.79937 -44.900787 
L 235.570394 -44.900787 
L 236.341417 -44.900787 
L 237.112441 -44.900787 
L 237.883465 -44.900787 
L 238.654488 -44.900787 
L 239.425512 -44.900787 
L 240.196535 -44.900787 
L 240.967559 -44.900787 
L 241.738583 -44.900787 
L 242.509606 -44.900787 
L 243.28063 -44.900787 
L 244.051654 -44.900787 
L 244.822677 -44.900787 
L 245.593701 -44.900787 
L 246.364724 -44.900787 
L 247.135748 -44.900787 
L 247.906772 -44.900787 
L 248.677795 -44.900787 
L 249.448819 -44.900787 
L 250.219843 -44.900787 
L 250.990866 -44.900787 
L 251.76189 -44.900787 
L 252.532913 -44.900787 
L 253.303937 -44.900787 
L 254.074961 -44.900787 
L 254.845984 -44.900787 
L 255.617008 -44.900787 
L 256.388031 -44.900787 
L 257.159055 -44.900787 
L 257.930079 -44.900787 
L 258.701102 -44.900787 
L 259.472126 -44.900787 
L 260.24315 -44.900787 
L 261.014173 -44.900787 
L 261.785197 -44.900787 
L 262.55622 -44.900787 
L 263.327244 -44.900787 
L 264.098268 -44.900787 
L 264.869291 -44.900787 
L 265.640315 -44.900787 
L 266.411339 -44.900787 
L 267.182362 -44.900787 
L 267.953386 -44.900787 
L 268.724409 -44.900787 
L 269.495433 -44.900787 
L 270.266457 -44.900787 
L 271.03748 -44.900787 
L 271.808504 -44.900787 
L 272.579528 -44.900787 
L 273.350551 -44.900787 
L 274.121575 -44.900787 
L 274.892598 -44.900787 
L 275.663622 -44.900787 
L 276.434646 -44.900787 
L 277.205669 -44.900787 
L 277.976693 -44.900787 
L 278.747717 -44.900787 
L 279.51874 -44.900787 
L 280.289764 -44.900787 
L 281.060787 -44.900787 
L 281.831811 -44.900787 
L 282.602835 -44.900787 
L 283.373858 -44.900787 
L 284.144882 -44.900787 
L 284.915906 -44.900787 
L 285.686929 -44.900787 
L 286.457953 -44.900787 
L 287.228976 -44.900787 
L 288 -44.900787 
L 288.771024 -44.900787 
L 289.542047 -44.900787 
L 290.313071 -44.900787 
L 291.084094 -44.900787 
L 291.855118 -44.900787 
L 292.626142 -44.900787 
L 293.397165 -44.900787 
L 294.168189 -44.900787 
L 294.939213 -44.900787 
L 295.710236 -44.900787 
L 296.48126 -44.900787 
L 297.252283 -44.900787 
L 298.023307 -44.900787 
L 298.794331 -44.900787 
L 299.565354 -44.900787 
L 300.336378 -44.900787 
L 301.107402 -44.900787 
L 301.878425 -44.900787 
L 302.649449 -44.900787 
L 303.420472 -44.900787 
L 304.191496 -44.900787 
L 304.96252 -44.900787 
L 305.733543 -44.900787 
L 306.504567 -44.900787 
L 307.275591 -44.900787 
L 308.046614 -44.900787 
L 308.817638 -44.900787 
L 309.588661 -44.900787 
L 310.359685 -44.900787 
L 311.130709 -44.900787 
L 311.901732 -44.900787 
L 312.672756 -44.900787 
L 313.44378 -44.900787 
L 314.214803 -44.900787 
L 314.985827 -44.900787 
L 315.75685 -44.900787 
L 316.527874 -44.900787 
L 317.298898 -44.900787 
L 318.069921 -44.900787 
L 318.840945 -44.900787 
L 319.611969 -44.900787 
L 320.382992 -44.900787 
L 321.154016 -44.900787 
L 321.925039 -44.900787 
L 322.696063 -44.900787 
L 323.467087 -44.900787 
L 324.23811 -44.900787 
L 325.009134 -44.900787 
L 325.780157 -44.900787 
L 326.551181 -44.900787 
L 327.322205 -44.900787 
L 328.093228 -44.900787 
L 328.864252 -44.900787 
L 329.635276 -44.900787 
L 330.406299 -44.900787 
L 331.177323 -44.900787 
L 331.948346 -44.900787 
L 332.71937 -44.900787 
L 333.490394 -44.900787 
L 334.261417 -44.900787 
L 335.032441 -44.900787 
L 335.803465 -44.900787 
L 336.574488 -44.900787 
L 337.345512 -44.900787 
L 338.116535 -44.900787 
L 338.887559 -44.900787 
L 339.658583 -44.900787 
L 340.429606 -44.900787 
L 341.20063 -44.900787 
L 341.971654 -44.900787 
L 342.742677 -44.900787 
L 343.513701 -44.900787 
L 344.284724 -44.900787 
L 345.055748 -44.900787 
L 345.826772 -44.900787 
L 346.597795 -44.900787 
L 347.368819 -44.900787 
L 348.139843 -44.900787 
L 348.910866 -44.900787 
L 349.68189 -44.900787 
L 350.452913 -44.900787 
L 351.223937 -44.900787 
L 351.994961 -44.900787 
L 352.765984 -44.900787 
L 353.537008 -44.900787 
L 354.308031 -44.900787 
L 355.079055 -44.900787 
L 355.850079 -44.900787 
L 356.621102 -44.900787 
L 357.392126 -44.900787 
L 358.16315 -44.900787 
L 358.934173 -44.900787 
L 359.705197 -44.900787 
L 360.47622 -44.900787 
L 361.247244 -44.900787 
L 362.018268 -44.900787 
L 362.789291 -44.900787 
L 363.560315 -44.900787 
L 364.331339 -44.900787 
L 365.102362 -44.900787 
L 365.873386 -44.900787 
L 366.644409 -44.900787 
L 367.415433 -44.900787 
L 368.186457 -44.900787 
L 368.95748 -44.900787 
L 369.728504 -44.900787 
L 370.499528 -44.900787 
L 371.270551 -44.900787 
L 372.041575 -44.900787 
L 372.812598 -44.900787 
L 373.583622 -44.900787 
L 374.354646 -44.900787 
L 375.125669 -44.900787 
L 375.896693 -44.900787 
L 376.667717 -44.900787 
L 377.43874 -44.900787 
L 378.209764 -44.900787 
L 378.980787 -44.900787 
L 379.751811 -44.900787 
L 380.522835 -44.900787 
L 381.293858 -44.900787 
L 382.064882 -44.900787 
L 382.835906 -44.900787 
L 383.606929 -44.900787 
L 384.377953 -44.900787 
L 385.148976 -44.900787 
L 385.92 -44.900787 
L 386.691024 -44.900787 
L 387.462047 -44.900787 
L 388.233071 -44.900787 
L 389.004094 -44.900787 
L 389.775118 -44.900787 
L 390.546142 -44.900787 
L 391.317165 -44.900787 
L 392.088189 -44.900787 
L 392.859213 -44.900787 
L 393.630236 -44.900787 
L 394.40126 -44.900787 
L 395.172283 -44.900787 
L 395.943307 -44.900787 
L 396.714331 -44.900787 
L 397.485354 -44.900787 
L 398.256378 -44.900787 
L 399.027402 -44.900787 
L 399.798425 -44.900787 
L 400.569449 -44.900787 
L 401.340472 -44.900787 
L 402.111496 -44.900787 
L 402.88252 -44.900787 
L 403.653543 -44.900787 
L 404.424567 -44.900787 
L 405.195591 -44.900787 
L 405.966614 -44.900787 
L 406.737638 -44.900787 
L 407.508661 -44.900787 
L 408.279685 -44.900787 
L 409.050709 -44.900787 
L 409.821732 -44.900787 
L 410.592756 -44.900787 
L 411.36378 -44.900787 
L 412.134803 -44.900787 
L 412.905827 -44.900787 
L 413.67685 -44.900787 
L 414.447874 -44.900787 
L 415.218898 -44.900787 
L 415.989921 -44.900787 
L 416.760945 -44.900787 
L 417.531969 -44.900787 
L 418.302992 -44.900787 
L 419.074016 -44.900787 
L 419.845039 -44.900787 
L 420.616063 -44.900787 
L 421.387087 -44.900787 
L 422.15811 -44.900787 
L 422.929134 -44.900787 
L 423.700157 -44.900787 
L 424.471181 -44.900787 
L 425.242205 -44.900787 
L 426.013228 -44.900787 
L 426.784252 -44.900787 
L 427.555276 -44.900787 
L 428.326299 -44.900787 
L 429.097323 -44.900787 
L 429.868346 -44.900787 
L 430.63937 -44.900787 
L 431.410394 -44.900787 
L 432.181417 -44.900787 
L 432.952441 -44.900787 
L 433.723465 -44.900787 
L 434.494488 -44.900787 
L 435.265512 -44.900787 
L 436.036535 -44.900787 
L 436.807559 -44.900787 
L 437.578583 -44.900787 
L 438.349606 -44.900787 
L 439.12063 -44.900787 
L 439.891654 -44.900787 
L 440.662677 -44.900787 
L 441.433701 -44.900787 
L 442.204724 -44.900787 
L 442.204724 -83.451969 
L 442.204724 -83.451969 
L 441.433701 -83.451969 
L 440.662677 -83.451969 
L 439.891654 -83.451969 
L 439.12063 -83.451969 
L 438.349606 -83.451969 
L 437.578583 -83.451969 
L 436.807559 -83.451969 
L 436.036535 -83.451969 
L 435.265512 -83.451969 
L 434.494488 -83.451969 
L 433.723465 -83.451969 
L 432.952441 -83.451969 
L 432.181417 -83.451969 
L 431.410394 -83.451969 
L 430.63937 -83.451969 
L 429.868346 -83.451969 
L 429.097323 -83.451969 
L 428.326299 -83.451969 
L 427.555276 -83.451969 
L 426.784252 -83.451969 
L 426.013228 -83.451969 
L 425.242205 -83.451969 
L 424.471181 -83.451969 
L 423.700157 -83.451969 
L 422.929134 -83.451969 
L 422.15811 -83.451969 
L 421.387087 -83.451969 
L 420.616063 -83.451969 
L 419.845039 -83.451969 
L 419.074016 -83.451969 
L 418.302992 -83.451969 
L 417.531969 -83.451969 
L 416.760945 -83.451969 
L 415.989921 -83.451969 
L 415.218898 -83.451969 
L 414.447874 -83.451969 
L 413.67685 -83.451969 
L 412.905827 -83.451969 
L 412.134803 -83.451969 
L 411.36378 -83.451969 
L 410.592756 -83.451969 
L 409.821732 -83.451969 
L 409.050709 -83.451969 
L 408.279685 -83.451969 
L 407.508661 -83.451969 
L 406.737638 -83.451969 
L 405.966614 -83.451969 
L 405.195591 -83.451969 
L 404.424567 -83.451969 
L 403.653543 -83.451969 
L 402.88252 -83.451969 
L 402.111496 -83.451969 
L 401.340472 -83.451969 
L 400.569449 -83.451969 
L 399.798425 -83.451969 
L 399.027402 -83.451969 
L 398.256378 -83.451969 
L 397.485354 -83.451969 
L 396.714331 -83.451969 
L 395.943307 -83.451969 
L 395.172283 -83.451969 
L 394.40126 -83.451969 
L 393.630236 -83.451969 
L 392.859213 -83.451969 
L 392.088189 -83.451969 
L 391.317165 -83.451969 
L 390.546142 -83.451969 
L 389.775118 -83.451969 
L 389.004094 -83.451969 
L 388.233071 -83.451969 
L 387.462047 -83.451969 
L 386.691024 -83.451969 
L 385.92 -83.451969 
L 385.148976 -83.451969 
L 384.377953 -83.451969 
L 383.606929 -83.451969 
L 382.835906 -83.451969 
L 382.064882 -83.451969 
L 381.293858 -83.451969 
L 380.522835 -83.451969 
L 379.751811 -83.451969 
L 378.980787 -83.451969 
L 378.209764 -83.451969 
L 377.43874 -83.451969 
L 376.667717 -83.451969 
L 375.896693 -83.451969 
L 375.125669 -83.451969 
L 374.354646 -83.451969 
L 373.583622 -83.451969 
L 372.812598 -83.451969 
L 372.041575 -83.451969 
L 371.270551 -83.451969 
L 370.499528 -83.451969 
L 369.728504 -83.451969 
L 368.95748 -83.451969 
L 368.186457 -83.451969 
L 367.415433 -83.451969 
L 366.644409 -83.451969 
L 365.873386 -83.451969 
L 365.102362 -83.451969 
L 364.331339 -83.451969 
L 363.560315 -83.451969 
L 362.789291 -83.451969 
L 362.018268 -83.451969 
L 361.247244 -83.451969 
L 360.47622 -83.451969 
L 359.705197 -83.451969 
L 358.934173 -83.451969 
L 358.16315 -83.451969 
L 357.392126 -83.451969 
L 356.621102 -83.451969 
L 355.850079 -83.451969 
L 355.079055 -83.451969 
L 354.308031 -83.451969 
L 353.537008 -83.451969 
L 352.765984 -83.451969 
L 351.994961 -83.451969 
L 351.223937 -83.451969 
L 350.452913 -83.451969 
L 349.68189 -83.451969 
L 348.910866 -83.451969 
L 348.139843 -83.451969 
L 347.368819 -83.451969 
L 346.597795 -83.451969 
L 345.826772 -83.451969 
L 345.055748 -83.451969 
L 344.284724 -83.451969 
L 343.513701 -83.451969 
L 342.742677 -83.451969 
L 341.971654 -83.451969 
L 341.20063 -83.451969 
L 340.429606 -83.451969 
L 339.658583 -83.451969 
L 338.887559 -83.451969 
L 338.116535 -83.451969 
L 337.345512 -83.451969 
L 336.574488 -83.451969 
L 335.803465 -83.451969 
L 335.032441 -83.451969 
L 334.261417 -83.451969 
L 333.490394 -83.451969 
L 332.71937 -83.451969 
L 331.948346 -83.451969 
L 331.177323 -83.451969 
L 330.406299 -83.451969 
L 329.635276 -83.451969 
L 328.864252 -83.451969 
L 328.093228 -83.451969 
L 327.322205 -83.451969 
L 326.551181 -83.451969 
L 325.780157 -83.451969 
L 325.009134 -83.451969 
L 324.23811 -83.451969 
L 323.467087 -83.451969 
L 322.696063 -83.451969 
L 321.925039 -83.451969 
L 321.154016 -83.451969 
L 320.382992 -83.451969 
L 319.611969 -83.451969 
L 318.840945 -83.451969 
L 318.069921 -83.451969 
L 317.298898 -83.451969 
L 316.527874 -83.451969 
L 315.75685 -83.451969 
L 314.985827 -83.451969 
L 314.214803 -83.451969 
L 313.44378 -83.451969 
L 312.672756 -83.451969 
L 311.901732 -83.451969 
L 311.130709 -83.451969 
L 310.359685 -83.451969 
L 309.588661 -83.451969 
L 308.817638 -83.451969 
L 308.046614 -83.451969 
L 307.275591 -83.451969 
L 306.504567 -83.451969 
L 305.733543 -83.451969 
L 304.96252 -83.451969 
L 304.191496 -83.451969 
L 303.420472 -83.451969 
L 302.649449 -83.451969 
L 301.878425 -83.451969 
L 301.107402 -83.451969 
L 300.336378 -83.451969 
L 299.565354 -83.451969 
L 298.794331 -83.451969 
L 298.023307 -83.451969 
L 297.252283 -83.451969 
L 296.48126 -83.451969 
L 295.710236 -83.451969 
L 294.939213 -83.451969 
L 294.168189 -83.451969 
L 293.397165 -83.451969 
L 292.626142 -83.451969 
L 291.855118 -83.451969 
L 291.084094 -83.451969 
L 290.313071 -83.451969 
L 289.542047 -83.451969 
L 288.771024 -83.451969 
L 288 -83.451969 
L 287.228976 -83.451969 
L 286.457953 -83.451969 
L 285.686929 -83.451969 
L 284.915906 -83.451969 
L 284.144882 -83.451969 
L 283.373858 -83.451969 
L 282.602835 -83.451969 
L 281.831811 -83.451969 
L 281.060787 -83.451969 
L 280.289764 -83.451969 
L 279.51874 -83.451969 
L 278.747717 -83.451969 
L 277.976693 -83.451969 
L 277.205669 -83.451969 
L 276.434646 -83.451969 
L 275.663622 -83.451969 
L 274.892598 -83.451969 
L 274.121575 -83.451969 
L 273.350551 -83.451969 
L 272.579528 -83.451969 
L 271.808504 -83.451969 
L 271.03748 -83.451969 
L 270.266457 -83.451969 
L 269.495433 -83.451969 
L 268.724409 -83.451969 
L 267.953386 -83.451969 
L 267.182362 -83.451969 
L 266.411339 -83.451969 
L 265.640315 -83.451969 
L 264.869291 -83.451969 
L 264.098268 -83.451969 
L 263.327244 -83.451969 
L 262.55622 -83.451969 
L 261.785197 -83.451969 
L 261.014173 -83.451969 
L 260.24315 -83.451969 
L 259.472126 -83.451969 
L 258.701102 -83.451969 
L 257.930079 -83.451969 
L 257.159055 -83.451969 
L 256.388031 -83.451969 
L 255.617008 -83.451969 
L 254.845984 -83.451969 
L 254.074961 -83.451969 
L 253.303937 -83.451969 
L 252.532913 -83.451969 
L 251.76189 -83.451969 
L 250.990866 -83.451969 
L 250.219843 -83.451969 
L 249.448819 -83.451969 
L 248.677795 -83.451969 
L 247.906772 -83.451969 
L 247.135748 -83.451969 
L 246.364724 -83.451969 
L 245.593701 -83.451969 
L 244.822677 -83.451969 
L 244.051654 -83.451969 
L 243.28063 -83.451969 
L 242.509606 -83.451969 
L 241.738583 -83.451969 
L 240.967559 -83.451969 
L 240.196535 -83.451969 
L 239.425512 -83.451969 
L 238.654488 -83.451969 
L 237.883465 -83.451969 
L 237.112441 -83.451969 
L 236.341417 -83.451969 
L 235.570394 -83.451969 
L 234.79937 -83.451969 
L 234.028346 -83.451969 
L 233.257323 -83.451969 
L 232.486299 -83.451969 
L 231.715276 -83.451969 
L 230.944252 -83.451969 
L 230.173228 -83.451969 
L 229.402205 -83.451969 
L 228.631181 -83.451969 
L 227.860157 -83.451969 
L 227.089134 -83.451969 
L 226.31811 -83.451969 
L 225.547087 -83.451969 
L 224.776063 -83.451969 
L 224.005039 -83.451969 
L 223.234016 -83.451969 
L 222.462992 -83.451969 
L 221.691969 -83.451969 
L 220.920945 -83.451969 
L 220.149921 -83.451969 
L 219.378898 -83.451969 
L 218.607874 -83.451969 
L 217.83685 -83.451969 
L 217.065827 -83.451969 
L 216.294803 -83.451969 
L 215.52378 -83.451969 
L 214.752756 -83.451969 
L 213.981732 -83.451969 
L 213.210709 -83.451969 
L 212.439685 -83.451969 
L 211.668661 -83.451969 
L 210.897638 -83.451969 
L 210.126614 -83.451969 
L 209.355591 -83.451969 
L 208.584567 -83.451969 
L 207.813543 -83.451969 
L 207.04252 -83.451969 
L 206.271496 -83.451969 
L 205.500472 -83.451969 
L 204.729449 -83.451969 
L 203.958425 -83.451969 
L 203.187402 -83.451969 
L 202.416378 -83.451969 
L 201.645354 -83.451969 
L 200.874331 -83.451969 
L 200.103307 -83.451969 
L 199.332283 -83.451969 
L 198.56126 -83.451969 
L 197.790236 -83.451969 
L 197.019213 -83.451969 
L 196.248189 -83.451969 
L 195.477165 -83.451969 
L 194.706142 -83.451969 
L 193.935118 -83.451969 
L 193.164094 -83.451969 
L 192.393071 -83.451969 
L 191.622047 -83.451969 
L 190.851024 -83.451969 
L 190.08 -83.451969 
L 189.308976 -83.451969 
L 188.537953 -83.451969 
L 187.766929 -83.451969 
L 186.995906 -83.451969 
L 186.224882 -83.451969 
L 185.453858 -83.451969 
L 184.682835 -83.451969 
L 183.911811 -83.451969 
L 183.140787 -83.451969 
L 182.369764 -83.451969 
L 181.59874 -83.451969 
L 180.827717 -83.451969 
L 180.056693 -83.451969 
L 179.285669 -83.451969 
L 178.514646 -83.451969 
L 177.743622 -83.451969 
L 176.972598 -83.451969 
L 176.201575 -83.451969 
L 175.430551 -83.451969 
L 174.659528 -83.451969 
L 173.888504 -83.451969 
L 173.11748 -83.451969 
L 172.346457 -83.451969 
L 171.575433 -83.451969 
L 170.804409 -83.451969 
L 170.033386 -83.451969 
L 169.262362 -83.451969 
L 168.491339 -83.451969 
L 167.720315 -83.451969 
L 166.949291 -83.451969 
L 166.178268 -83.451969 
L 165.407244 -83.451969 
L 164.63622 -83.451969 
L 163.865197 -83.451969 
L 163.094173 -83.451969 
L 162.32315 -83.451969 
L 161.552126 -83.451969 
L 160.781102 -83.451969 
L 160.010079 -83.451969 
L 159.239055 -83.451969 
L 158.468031 -83.451969 
L 157.697008 -83.451969 
L 156.925984 -83.451969 
L 156.154961 -83.451969 
L 155.383937 -83.451969 
L 154.612913 -83.451969 
L 153.84189 -83.451969 
L 153.070866 -83.451969 
L 152.299843 -83.451969 
L 151.528819 -83.451969 
L 150.757795 -83.451969 
L 149.986772 -83.451969 
L 149.215748 -83.451969 
L 148.444724 -83.451969 
L 147.673701 -83.451969 
L 146.902677 -83.451969 
L 146.131654 -83.451969 
L 145.36063 -83.451969 
L 144.589606 -83.451969 
L 143.818583 -83.451969 
L 143.047559 -83.451969 
L 142.276535 -83.451969 
L 141.505512 -83.451969 
L 140.734488 -83.451969 
L 139.963465 -83.451969 
L 139.192441 -83.451969 
L 138.421417 -83.451969 
L 137.650394 -83.451969 
L 136.87937 -83.451969 
L 136.108346 -83.451969 
L 135.337323 -83.451969 
L 134.566299 -83.451969 
L 133.795276 -83.451969 
L 133.024252 -83.451969 
L 132.253228 -83.451969 
L 131.482205 -83.451969 
L 130.711181 -83.451969 
L 129.940157 -83.451969 
L 129.169134 -83.451969 
L 128.39811 -83.451969 
L 127.627087 -83.451969 
L 126.856063 -83.451969 
L 126.085039 -83.451969 
L 125.314016 -83.451969 
L 124.542992 -83.451969 
L 123.771969 -83.451969 
L 123.000945 -83.451969 
L 122.229921 -83.451969 
L 121.458898 -83.451969 
L 120.687874 -83.451969 
L 119.91685 -83.451969 
L 119.145827 -83.451969 
L 118.374803 -83.451969 
L 117.60378 -83.451969 
L 116.832756 -83.451969 
L 116.061732 -83.451969 
L 115.290709 -83.451969 
L 114.519685 -83.451969 
L 113.748661 -83.451969 
L 112.977638 -83.451969 
L 112.206614 -83.451969 
L 111.435591 -83.451969 
L 110.664567 -83.451969 
L 109.893543 -83.451969 
L 109.12252 -83.451969 
L 108.351496 -83.451969 
L 107.580472 -83.451969 
L 106.809449 -83.451969 
L 106.038425 -83.451969 
L 105.267402 -83.451969 
L 104.496378 -83.451969 
L 103.725354 -83.451969 
L 102.954331 -83.451969 
L 102.183307 -83.451969 
L 101.412283 -83.451969 
L 100.64126 -83.451969 
L 99.870236 -83.451969 
L 99.099213 -83.451969 
L 98.328189 -83.451969 
L 97.557165 -83.451969 
L 96.786142 -83.451969 
L 96.015118 -83.451969 
L 95.244094 -83.451969 
L 94.473071 -83.451969 
L 93.702047 -83.451969 
L 92.931024 -83.451969 
L 92.16 -83.451969 
L 91.388976 -83.451969 
L 90.617953 -83.451969 
L 89.846929 -83.451969 
L 89.075906 -83.451969 
L 88.304882 -83.451969 
L 87.533858 -83.451969 
L 86.762835 -83.451969 
L 85.991811 -83.451969 
L 85.220787 -83.451969 
L 84.449764 -83.451969 
L 83.67874 -83.451969 
L 82.907717 -83.451969 
L 82.136693 -83.451969 
L 81.365669 -83.451969 
L 80.594646 -83.451969 
L 79.823622 -83.451969 
L 79.052598 -83.451969 
L 78.281575 -83.451969 
L 77.510551 -83.451969 
L 76.739528 -83.451969 
L 75.968504 -83.451969 
L 75.19748 -83.451969 
L 74.426457 -83.451969 
L 73.655433 -83.451969 
L 72.884409 -83.451969 
L 72.113386 -83.451969 
L 71.342362 -83.451969 
L 70.571339 -83.451969 
L 69.800315 -83.451969 
L 69.029291 -83.451969 
L 68.258268 -83.451969 
L 67.487244 -83.451969 
L 66.71622 -83.451969 
L 65.945197 -83.451969 
L 65.174173 -83.451969 
L 64.40315 -83.451969 
L 63.632126 -83.451969 
L 62.861102 -83.451969 
L 62.090079 -83.451969 
L 61.319055 -83.451969 
L 60.548031 -83.451969 
L 59.777008 -83.451969 
L 59.005984 -83.451969 
L 58.234961 -83.451969 
L 57.463937 -83.451969 
L 56.692913 -83.451969 
z
"/>
    </defs>
    <g clip-path="url(#pf02eeda1f2)">
     <use xlink:href="#m7054443244" x="0" y="272.125984" style="fill: #ddebe3; fill-opacity: 0.72"/>
    </g>
   </g>
   <g id="FillBetweenPolyCollection_2">
    <defs>
     <path id="m7442d3a87d" d="M 56.692913 -83.451969 
L 56.692913 -83.451969 
L 57.463937 -83.451969 
L 58.234961 -83.451969 
L 59.005984 -83.451969 
L 59.777008 -83.451969 
L 60.548031 -83.451969 
L 61.319055 -83.451969 
L 62.090079 -83.451969 
L 62.861102 -83.451969 
L 63.632126 -83.451969 
L 64.40315 -83.451969 
L 65.174173 -83.451969 
L 65.945197 -83.451969 
L 66.71622 -83.451969 
L 67.487244 -83.451969 
L 68.258268 -83.451969 
L 69.029291 -83.451969 
L 69.800315 -83.451969 
L 70.571339 -83.451969 
L 71.342362 -83.451969 
L 72.113386 -83.451969 
L 72.884409 -83.451969 
L 73.655433 -83.451969 
L 74.426457 -83.451969 
L 75.19748 -83.451969 
L 75.968504 -83.451969 
L 76.739528 -83.451969 
L 77.510551 -83.451969 
L 78.281575 -83.451969 
L 79.052598 -83.451969 
L 79.823622 -83.451969 
L 80.594646 -83.451969 
L 81.365669 -83.451969 
L 82.136693 -83.451969 
L 82.907717 -83.451969 
L 83.67874 -83.451969 
L 84.449764 -83.451969 
L 85.220787 -83.451969 
L 85.991811 -83.451969 
L 86.762835 -83.451969 
L 87.533858 -83.451969 
L 88.304882 -83.451969 
L 89.075906 -83.451969 
L 89.846929 -83.451969 
L 90.617953 -83.451969 
L 91.388976 -83.451969 
L 92.16 -83.451969 
L 92.931024 -83.451969 
L 93.702047 -83.451969 
L 94.473071 -83.451969 
L 95.244094 -83.451969 
L 96.015118 -83.451969 
L 96.786142 -83.451969 
L 97.557165 -83.451969 
L 98.328189 -83.451969 
L 99.099213 -83.451969 
L 99.870236 -83.451969 
L 100.64126 -83.451969 
L 101.412283 -83.451969 
L 102.183307 -83.451969 
L 102.954331 -83.451969 
L 103.725354 -83.451969 
L 104.496378 -83.451969 
L 105.267402 -83.451969 
L 106.038425 -83.451969 
L 106.809449 -83.451969 
L 107.580472 -83.451969 
L 108.351496 -83.451969 
L 109.12252 -83.451969 
L 109.893543 -83.451969 
L 110.664567 -83.451969 
L 111.435591 -83.451969 
L 112.206614 -83.451969 
L 112.977638 -83.451969 
L 113.748661 -83.451969 
L 114.519685 -83.451969 
L 115.290709 -83.451969 
L 116.061732 -83.451969 
L 116.832756 -83.451969 
L 117.60378 -83.451969 
L 118.374803 -83.451969 
L 119.145827 -83.451969 
L 119.91685 -83.451969 
L 120.687874 -83.451969 
L 121.458898 -83.451969 
L 122.229921 -83.451969 
L 123.000945 -83.451969 
L 123.771969 -83.451969 
L 124.542992 -83.451969 
L 125.314016 -83.451969 
L 126.085039 -83.451969 
L 126.856063 -83.451969 
L 127.627087 -83.451969 
L 128.39811 -83.451969 
L 129.169134 -83.451969 
L 129.940157 -83.451969 
L 130.711181 -83.451969 
L 131.482205 -83.451969 
L 132.253228 -83.451969 
L 133.024252 -83.451969 
L 133.795276 -83.451969 
L 134.566299 -83.451969 
L 135.337323 -83.451969 
L 136.108346 -83.451969 
L 136.87937 -83.451969 
L 137.650394 -83.451969 
L 138.421417 -83.451969 
L 139.192441 -83.451969 
L 139.963465 -83.451969 
L 140.734488 -83.451969 
L 141.505512 -83.451969 
L 142.276535 -83.451969 
L 143.047559 -83.451969 
L 143.818583 -83.451969 
L 144.589606 -83.451969 
L 145.36063 -83.451969 
L 146.131654 -83.451969 
L 146.902677 -83.451969 
L 147.673701 -83.451969 
L 148.444724 -83.451969 
L 149.215748 -83.451969 
L 149.986772 -83.451969 
L 150.757795 -83.451969 
L 151.528819 -83.451969 
L 152.299843 -83.451969 
L 153.070866 -83.451969 
L 153.84189 -83.451969 
L 154.612913 -83.451969 
L 155.383937 -83.451969 
L 156.154961 -83.451969 
L 156.925984 -83.451969 
L 157.697008 -83.451969 
L 158.468031 -83.451969 
L 159.239055 -83.451969 
L 160.010079 -83.451969 
L 160.781102 -83.451969 
L 161.552126 -83.451969 
L 162.32315 -83.451969 
L 163.094173 -83.451969 
L 163.865197 -83.451969 
L 164.63622 -83.451969 
L 165.407244 -83.451969 
L 166.178268 -83.451969 
L 166.949291 -83.451969 
L 167.720315 -83.451969 
L 168.491339 -83.451969 
L 169.262362 -83.451969 
L 170.033386 -83.451969 
L 170.804409 -83.451969 
L 171.575433 -83.451969 
L 172.346457 -83.451969 
L 173.11748 -83.451969 
L 173.888504 -83.451969 
L 174.659528 -83.451969 
L 175.430551 -83.451969 
L 176.201575 -83.451969 
L 176.972598 -83.451969 
L 177.743622 -83.451969 
L 178.514646 -83.451969 
L 179.285669 -83.451969 
L 180.056693 -83.451969 
L 180.827717 -83.451969 
L 181.59874 -83.451969 
L 182.369764 -83.451969 
L 183.140787 -83.451969 
L 183.911811 -83.451969 
L 184.682835 -83.451969 
L 185.453858 -83.451969 
L 186.224882 -83.451969 
L 186.995906 -83.451969 
L 187.766929 -83.451969 
L 188.537953 -83.451969 
L 189.308976 -83.451969 
L 190.08 -83.451969 
L 190.851024 -83.451969 
L 191.622047 -83.451969 
L 192.393071 -83.451969 
L 193.164094 -83.451969 
L 193.935118 -83.451969 
L 194.706142 -83.451969 
L 195.477165 -83.451969 
L 196.248189 -83.451969 
L 197.019213 -83.451969 
L 197.790236 -83.451969 
L 198.56126 -83.451969 
L 199.332283 -83.451969 
L 200.103307 -83.451969 
L 200.874331 -83.451969 
L 201.645354 -83.451969 
L 202.416378 -83.451969 
L 203.187402 -83.451969 
L 203.958425 -83.451969 
L 204.729449 -83.451969 
L 205.500472 -83.451969 
L 206.271496 -83.451969 
L 207.04252 -83.451969 
L 207.813543 -83.451969 
L 208.584567 -83.451969 
L 209.355591 -83.451969 
L 210.126614 -83.451969 
L 210.897638 -83.451969 
L 211.668661 -83.451969 
L 212.439685 -83.451969 
L 213.210709 -83.451969 
L 213.981732 -83.451969 
L 214.752756 -83.451969 
L 215.52378 -83.451969 
L 216.294803 -83.451969 
L 217.065827 -83.451969 
L 217.83685 -83.451969 
L 218.607874 -83.451969 
L 219.378898 -83.451969 
L 220.149921 -83.451969 
L 220.920945 -83.451969 
L 221.691969 -83.451969 
L 222.462992 -83.451969 
L 223.234016 -83.451969 
L 224.005039 -83.451969 
L 224.776063 -83.451969 
L 225.547087 -83.451969 
L 226.31811 -83.451969 
L 227.089134 -83.451969 
L 227.860157 -83.451969 
L 228.631181 -83.451969 
L 229.402205 -83.451969 
L 230.173228 -83.451969 
L 230.944252 -83.451969 
L 231.715276 -83.451969 
L 232.486299 -83.451969 
L 233.257323 -83.451969 
L 234.028346 -83.451969 
L 234.79937 -83.451969 
L 235.570394 -83.451969 
L 236.341417 -83.451969 
L 237.112441 -83.451969 
L 237.883465 -83.451969 
L 238.654488 -83.451969 
L 239.425512 -83.451969 
L 240.196535 -83.451969 
L 240.967559 -83.451969 
L 241.738583 -83.451969 
L 242.509606 -83.451969 
L 243.28063 -83.451969 
L 244.051654 -83.451969 
L 244.822677 -83.451969 
L 245.593701 -83.451969 
L 246.364724 -83.451969 
L 247.135748 -83.451969 
L 247.906772 -83.451969 
L 248.677795 -83.451969 
L 249.448819 -83.451969 
L 250.219843 -83.451969 
L 250.990866 -83.451969 
L 251.76189 -83.451969 
L 252.532913 -83.451969 
L 253.303937 -83.451969 
L 254.074961 -83.451969 
L 254.845984 -83.451969 
L 255.617008 -83.451969 
L 256.388031 -83.451969 
L 257.159055 -83.451969 
L 257.930079 -83.451969 
L 258.701102 -83.451969 
L 259.472126 -83.451969 
L 260.24315 -83.451969 
L 261.014173 -83.451969 
L 261.785197 -83.451969 
L 262.55622 -83.451969 
L 263.327244 -83.451969 
L 264.098268 -83.451969 
L 264.869291 -83.451969 
L 265.640315 -83.451969 
L 266.411339 -83.451969 
L 267.182362 -83.451969 
L 267.953386 -83.451969 
L 268.724409 -83.451969 
L 269.495433 -83.451969 
L 270.266457 -83.451969 
L 271.03748 -83.451969 
L 271.808504 -83.451969 
L 272.579528 -83.451969 
L 273.350551 -83.451969 
L 274.121575 -83.451969 
L 274.892598 -83.451969 
L 275.663622 -83.451969 
L 276.434646 -83.451969 
L 277.205669 -83.451969 
L 277.976693 -83.451969 
L 278.747717 -83.451969 
L 279.51874 -83.451969 
L 280.289764 -83.451969 
L 281.060787 -83.451969 
L 281.831811 -83.451969 
L 282.602835 -83.451969 
L 283.373858 -83.451969 
L 284.144882 -83.451969 
L 284.915906 -83.451969 
L 285.686929 -83.451969 
L 286.457953 -83.451969 
L 287.228976 -83.451969 
L 288 -83.451969 
L 288.771024 -83.451969 
L 289.542047 -83.451969 
L 290.313071 -83.451969 
L 291.084094 -83.451969 
L 291.855118 -83.451969 
L 292.626142 -83.451969 
L 293.397165 -83.451969 
L 294.168189 -83.451969 
L 294.939213 -83.451969 
L 295.710236 -83.451969 
L 296.48126 -83.451969 
L 297.252283 -83.451969 
L 298.023307 -83.451969 
L 298.794331 -83.451969 
L 299.565354 -83.451969 
L 300.336378 -83.451969 
L 301.107402 -83.451969 
L 301.878425 -83.451969 
L 302.649449 -83.451969 
L 303.420472 -83.451969 
L 304.191496 -83.451969 
L 304.96252 -83.451969 
L 305.733543 -83.451969 
L 306.504567 -83.451969 
L 307.275591 -83.451969 
L 308.046614 -83.451969 
L 308.817638 -83.451969 
L 309.588661 -83.451969 
L 310.359685 -83.451969 
L 311.130709 -83.451969 
L 311.901732 -83.451969 
L 312.672756 -83.451969 
L 313.44378 -83.451969 
L 314.214803 -83.451969 
L 314.985827 -83.451969 
L 315.75685 -83.451969 
L 316.527874 -83.451969 
L 317.298898 -83.451969 
L 318.069921 -83.451969 
L 318.840945 -83.451969 
L 319.611969 -83.451969 
L 320.382992 -83.451969 
L 321.154016 -83.451969 
L 321.925039 -83.451969 
L 322.696063 -83.451969 
L 323.467087 -83.451969 
L 324.23811 -83.451969 
L 325.009134 -83.451969 
L 325.780157 -83.451969 
L 326.551181 -83.451969 
L 327.322205 -83.451969 
L 328.093228 -83.451969 
L 328.864252 -83.451969 
L 329.635276 -83.451969 
L 330.406299 -83.451969 
L 331.177323 -83.451969 
L 331.948346 -83.451969 
L 332.71937 -83.451969 
L 333.490394 -83.451969 
L 334.261417 -83.451969 
L 335.032441 -83.451969 
L 335.803465 -83.451969 
L 336.574488 -83.451969 
L 337.345512 -83.451969 
L 338.116535 -83.451969 
L 338.887559 -83.451969 
L 339.658583 -83.451969 
L 340.429606 -83.451969 
L 341.20063 -83.451969 
L 341.971654 -83.451969 
L 342.742677 -83.451969 
L 343.513701 -83.451969 
L 344.284724 -83.451969 
L 345.055748 -83.451969 
L 345.826772 -83.451969 
L 346.597795 -83.451969 
L 347.368819 -83.451969 
L 348.139843 -83.451969 
L 348.910866 -83.451969 
L 349.68189 -83.451969 
L 350.452913 -83.451969 
L 351.223937 -83.451969 
L 351.994961 -83.451969 
L 352.765984 -83.451969 
L 353.537008 -83.451969 
L 354.308031 -83.451969 
L 355.079055 -83.451969 
L 355.850079 -83.451969 
L 356.621102 -83.451969 
L 357.392126 -83.451969 
L 358.16315 -83.451969 
L 358.934173 -83.451969 
L 359.705197 -83.451969 
L 360.47622 -83.451969 
L 361.247244 -83.451969 
L 362.018268 -83.451969 
L 362.789291 -83.451969 
L 363.560315 -83.451969 
L 364.331339 -83.451969 
L 365.102362 -83.451969 
L 365.873386 -83.451969 
L 366.644409 -83.451969 
L 367.415433 -83.451969 
L 368.186457 -83.451969 
L 368.95748 -83.451969 
L 369.728504 -83.451969 
L 370.499528 -83.451969 
L 371.270551 -83.451969 
L 372.041575 -83.451969 
L 372.812598 -83.451969 
L 373.583622 -83.451969 
L 374.354646 -83.451969 
L 375.125669 -83.451969 
L 375.896693 -83.451969 
L 376.667717 -83.451969 
L 377.43874 -83.451969 
L 378.209764 -83.451969 
L 378.980787 -83.451969 
L 379.751811 -83.451969 
L 380.522835 -83.451969 
L 381.293858 -83.451969 
L 382.064882 -83.451969 
L 382.835906 -83.451969 
L 383.606929 -83.451969 
L 384.377953 -83.451969 
L 385.148976 -83.451969 
L 385.92 -83.451969 
L 386.691024 -83.451969 
L 387.462047 -83.451969 
L 388.233071 -83.451969 
L 389.004094 -83.451969 
L 389.775118 -83.451969 
L 390.546142 -83.451969 
L 391.317165 -83.451969 
L 392.088189 -83.451969 
L 392.859213 -83.451969 
L 393.630236 -83.451969 
L 394.40126 -83.451969 
L 395.172283 -83.451969 
L 395.943307 -83.451969 
L 396.714331 -83.451969 
L 397.485354 -83.451969 
L 398.256378 -83.451969 
L 399.027402 -83.451969 
L 399.798425 -83.451969 
L 400.569449 -83.451969 
L 401.340472 -83.451969 
L 402.111496 -83.451969 
L 402.88252 -83.451969 
L 403.653543 -83.451969 
L 404.424567 -83.451969 
L 405.195591 -83.451969 
L 405.966614 -83.451969 
L 406.737638 -83.451969 
L 407.508661 -83.451969 
L 408.279685 -83.451969 
L 409.050709 -83.451969 
L 409.821732 -83.451969 
L 410.592756 -83.451969 
L 411.36378 -83.451969 
L 412.134803 -83.451969 
L 412.905827 -83.451969 
L 413.67685 -83.451969 
L 414.447874 -83.451969 
L 415.218898 -83.451969 
L 415.989921 -83.451969 
L 416.760945 -83.451969 
L 417.531969 -83.451969 
L 418.302992 -83.451969 
L 419.074016 -83.451969 
L 419.845039 -83.451969 
L 420.616063 -83.451969 
L 421.387087 -83.451969 
L 422.15811 -83.451969 
L 422.929134 -83.451969 
L 423.700157 -83.451969 
L 424.471181 -83.451969 
L 425.242205 -83.451969 
L 426.013228 -83.451969 
L 426.784252 -83.451969 
L 427.555276 -83.451969 
L 428.326299 -83.451969 
L 429.097323 -83.451969 
L 429.868346 -83.451969 
L 430.63937 -83.451969 
L 431.410394 -83.451969 
L 432.181417 -83.451969 
L 432.952441 -83.451969 
L 433.723465 -83.451969 
L 434.494488 -83.451969 
L 435.265512 -83.451969 
L 436.036535 -83.451969 
L 436.807559 -83.451969 
L 437.578583 -83.451969 
L 438.349606 -83.451969 
L 439.12063 -83.451969 
L 439.891654 -83.451969 
L 440.662677 -83.451969 
L 441.433701 -83.451969 
L 442.204724 -83.451969 
L 442.204724 -218.381102 
L 442.204724 -218.381102 
L 441.433701 -218.111244 
L 440.662677 -217.841386 
L 439.891654 -217.571528 
L 439.12063 -217.301669 
L 438.349606 -217.031811 
L 437.578583 -216.761953 
L 436.807559 -216.492094 
L 436.036535 -216.222236 
L 435.265512 -215.952378 
L 434.494488 -215.68252 
L 433.723465 -215.412661 
L 432.952441 -215.142803 
L 432.181417 -214.872945 
L 431.410394 -214.603087 
L 430.63937 -214.333228 
L 429.868346 -214.06337 
L 429.097323 -213.793512 
L 428.326299 -213.523654 
L 427.555276 -213.253795 
L 426.784252 -212.983937 
L 426.013228 -212.714079 
L 425.242205 -212.44422 
L 424.471181 -212.174362 
L 423.700157 -211.904504 
L 422.929134 -211.634646 
L 422.15811 -211.364787 
L 421.387087 -211.094929 
L 420.616063 -210.825071 
L 419.845039 -210.555213 
L 419.074016 -210.285354 
L 418.302992 -210.015496 
L 417.531969 -209.745638 
L 416.760945 -209.47578 
L 415.989921 -209.205921 
L 415.218898 -208.936063 
L 414.447874 -208.666205 
L 413.67685 -208.396346 
L 412.905827 -208.126488 
L 412.134803 -207.85663 
L 411.36378 -207.586772 
L 410.592756 -207.316913 
L 409.821732 -207.047055 
L 409.050709 -206.777197 
L 408.279685 -206.507339 
L 407.508661 -206.23748 
L 406.737638 -205.967622 
L 405.966614 -205.697764 
L 405.195591 -205.427906 
L 404.424567 -205.158047 
L 403.653543 -204.888189 
L 402.88252 -204.618331 
L 402.111496 -204.348472 
L 401.340472 -204.078614 
L 400.569449 -203.808756 
L 399.798425 -203.538898 
L 399.027402 -203.269039 
L 398.256378 -202.999181 
L 397.485354 -202.729323 
L 396.714331 -202.459465 
L 395.943307 -202.189606 
L 395.172283 -201.919748 
L 394.40126 -201.64989 
L 393.630236 -201.380031 
L 392.859213 -201.110173 
L 392.088189 -200.840315 
L 391.317165 -200.570457 
L 390.546142 -200.300598 
L 389.775118 -200.03074 
L 389.004094 -199.760882 
L 388.233071 -199.491024 
L 387.462047 -199.221165 
L 386.691024 -198.951307 
L 385.92 -198.681449 
L 385.148976 -198.411591 
L 384.377953 -198.141732 
L 383.606929 -197.871874 
L 382.835906 -197.602016 
L 382.064882 -197.332157 
L 381.293858 -197.062299 
L 380.522835 -196.792441 
L 379.751811 -196.522583 
L 378.980787 -196.252724 
L 378.209764 -195.982866 
L 377.43874 -195.713008 
L 376.667717 -195.44315 
L 375.896693 -195.173291 
L 375.125669 -194.903433 
L 374.354646 -194.633575 
L 373.583622 -194.363717 
L 372.812598 -194.093858 
L 372.041575 -193.824 
L 371.270551 -193.554142 
L 370.499528 -193.284283 
L 369.728504 -193.014425 
L 368.95748 -192.744567 
L 368.186457 -192.474709 
L 367.415433 -192.20485 
L 366.644409 -191.934992 
L 365.873386 -191.665134 
L 365.102362 -191.395276 
L 364.331339 -191.125417 
L 363.560315 -190.855559 
L 362.789291 -190.585701 
L 362.018268 -190.315843 
L 361.247244 -190.045984 
L 360.47622 -189.776126 
L 359.705197 -189.506268 
L 358.934173 -189.236409 
L 358.16315 -188.966551 
L 357.392126 -188.696693 
L 356.621102 -188.426835 
L 355.850079 -188.156976 
L 355.079055 -187.887118 
L 354.308031 -187.61726 
L 353.537008 -187.347402 
L 352.765984 -187.077543 
L 351.994961 -186.807685 
L 351.223937 -186.537827 
L 350.452913 -186.267969 
L 349.68189 -185.99811 
L 348.910866 -185.728252 
L 348.139843 -185.458394 
L 347.368819 -185.188535 
L 346.597795 -184.918677 
L 345.826772 -184.648819 
L 345.055748 -184.378961 
L 344.284724 -184.109102 
L 343.513701 -183.839244 
L 342.742677 -183.569386 
L 341.971654 -183.299528 
L 341.20063 -183.029669 
L 340.429606 -182.759811 
L 339.658583 -182.489953 
L 338.887559 -182.220094 
L 338.116535 -181.950236 
L 337.345512 -181.680378 
L 336.574488 -181.41052 
L 335.803465 -181.140661 
L 335.032441 -180.870803 
L 334.261417 -180.600945 
L 333.490394 -180.331087 
L 332.71937 -180.061228 
L 331.948346 -179.79137 
L 331.177323 -179.521512 
L 330.406299 -179.251654 
L 329.635276 -178.981795 
L 328.864252 -178.711937 
L 328.093228 -178.442079 
L 327.322205 -178.17222 
L 326.551181 -177.902362 
L 325.780157 -177.632504 
L 325.009134 -177.362646 
L 324.23811 -177.092787 
L 323.467087 -176.822929 
L 322.696063 -176.553071 
L 321.925039 -176.283213 
L 321.154016 -176.013354 
L 320.382992 -175.743496 
L 319.611969 -175.473638 
L 318.840945 -175.20378 
L 318.069921 -174.933921 
L 317.298898 -174.664063 
L 316.527874 -174.394205 
L 315.75685 -174.124346 
L 314.985827 -173.854488 
L 314.214803 -173.58463 
L 313.44378 -173.314772 
L 312.672756 -173.044913 
L 311.901732 -172.775055 
L 311.130709 -172.505197 
L 310.359685 -172.235339 
L 309.588661 -171.96548 
L 308.817638 -171.695622 
L 308.046614 -171.425764 
L 307.275591 -171.155906 
L 306.504567 -170.886047 
L 305.733543 -170.616189 
L 304.96252 -170.346331 
L 304.191496 -170.076472 
L 303.420472 -169.806614 
L 302.649449 -169.536756 
L 301.878425 -169.266898 
L 301.107402 -168.997039 
L 300.336378 -168.727181 
L 299.565354 -168.457323 
L 298.794331 -168.187465 
L 298.023307 -167.917606 
L 297.252283 -167.647748 
L 296.48126 -167.37789 
L 295.710236 -167.108031 
L 294.939213 -166.838173 
L 294.168189 -166.568315 
L 293.397165 -166.298457 
L 292.626142 -166.028598 
L 291.855118 -165.75874 
L 291.084094 -165.488882 
L 290.313071 -165.219024 
L 289.542047 -164.949165 
L 288.771024 -164.679307 
L 288 -164.409449 
L 287.228976 -164.139591 
L 286.457953 -163.869732 
L 285.686929 -163.599874 
L 284.915906 -163.330016 
L 284.144882 -163.060157 
L 283.373858 -162.790299 
L 282.602835 -162.520441 
L 281.831811 -162.250583 
L 281.060787 -161.980724 
L 280.289764 -161.710866 
L 279.51874 -161.441008 
L 278.747717 -161.17115 
L 277.976693 -160.901291 
L 277.205669 -160.631433 
L 276.434646 -160.361575 
L 275.663622 -160.091717 
L 274.892598 -159.821858 
L 274.121575 -159.552 
L 273.350551 -159.282142 
L 272.579528 -159.012283 
L 271.808504 -158.742425 
L 271.03748 -158.472567 
L 270.266457 -158.202709 
L 269.495433 -157.93285 
L 268.724409 -157.662992 
L 267.953386 -157.393134 
L 267.182362 -157.123276 
L 266.411339 -156.853417 
L 265.640315 -156.583559 
L 264.869291 -156.313701 
L 264.098268 -156.043843 
L 263.327244 -155.773984 
L 262.55622 -155.504126 
L 261.785197 -155.234268 
L 261.014173 -154.964409 
L 260.24315 -154.694551 
L 259.472126 -154.424693 
L 258.701102 -154.154835 
L 257.930079 -153.884976 
L 257.159055 -153.615118 
L 256.388031 -153.34526 
L 255.617008 -153.075402 
L 254.845984 -152.805543 
L 254.074961 -152.535685 
L 253.303937 -152.265827 
L 252.532913 -151.995969 
L 251.76189 -151.72611 
L 250.990866 -151.456252 
L 250.219843 -151.186394 
L 249.448819 -150.916535 
L 248.677795 -150.646677 
L 247.906772 -150.376819 
L 247.135748 -150.106961 
L 246.364724 -149.837102 
L 245.593701 -149.567244 
L 244.822677 -149.297386 
L 244.051654 -149.027528 
L 243.28063 -148.757669 
L 242.509606 -148.487811 
L 241.738583 -148.217953 
L 240.967559 -147.948094 
L 240.196535 -147.678236 
L 239.425512 -147.408378 
L 238.654488 -147.13852 
L 237.883465 -146.868661 
L 237.112441 -146.598803 
L 236.341417 -146.328945 
L 235.570394 -146.059087 
L 234.79937 -145.789228 
L 234.028346 -145.51937 
L 233.257323 -145.249512 
L 232.486299 -144.979654 
L 231.715276 -144.709795 
L 230.944252 -144.439937 
L 230.173228 -144.170079 
L 229.402205 -143.90022 
L 228.631181 -143.630362 
L 227.860157 -143.360504 
L 227.089134 -143.090646 
L 226.31811 -142.820787 
L 225.547087 -142.550929 
L 224.776063 -142.281071 
L 224.005039 -142.011213 
L 223.234016 -141.741354 
L 222.462992 -141.471496 
L 221.691969 -141.201638 
L 220.920945 -140.93178 
L 220.149921 -140.661921 
L 219.378898 -140.392063 
L 218.607874 -140.122205 
L 217.83685 -139.852346 
L 217.065827 -139.582488 
L 216.294803 -139.31263 
L 215.52378 -139.042772 
L 214.752756 -138.772913 
L 213.981732 -138.503055 
L 213.210709 -138.233197 
L 212.439685 -137.963339 
L 211.668661 -137.69348 
L 210.897638 -137.423622 
L 210.126614 -137.153764 
L 209.355591 -136.883906 
L 208.584567 -136.614047 
L 207.813543 -136.344189 
L 207.04252 -136.074331 
L 206.271496 -135.804472 
L 205.500472 -135.534614 
L 204.729449 -135.264756 
L 203.958425 -134.994898 
L 203.187402 -134.725039 
L 202.416378 -134.455181 
L 201.645354 -134.185323 
L 200.874331 -133.915465 
L 200.103307 -133.645606 
L 199.332283 -133.375748 
L 198.56126 -133.10589 
L 197.790236 -132.836031 
L 197.019213 -132.566173 
L 196.248189 -132.296315 
L 195.477165 -132.026457 
L 194.706142 -131.756598 
L 193.935118 -131.48674 
L 193.164094 -131.216882 
L 192.393071 -130.947024 
L 191.622047 -130.677165 
L 190.851024 -130.407307 
L 190.08 -130.137449 
L 189.308976 -129.867591 
L 188.537953 -129.597732 
L 187.766929 -129.327874 
L 186.995906 -129.058016 
L 186.224882 -128.788157 
L 185.453858 -128.518299 
L 184.682835 -128.248441 
L 183.911811 -127.978583 
L 183.140787 -127.708724 
L 182.369764 -127.438866 
L 181.59874 -127.169008 
L 180.827717 -126.89915 
L 180.056693 -126.629291 
L 179.285669 -126.359433 
L 178.514646 -126.089575 
L 177.743622 -125.819717 
L 176.972598 -125.549858 
L 176.201575 -125.28 
L 175.430551 -125.010142 
L 174.659528 -124.740283 
L 173.888504 -124.470425 
L 173.11748 -124.200567 
L 172.346457 -123.930709 
L 171.575433 -123.66085 
L 170.804409 -123.390992 
L 170.033386 -123.121134 
L 169.262362 -122.851276 
L 168.491339 -122.581417 
L 167.720315 -122.311559 
L 166.949291 -122.041701 
L 166.178268 -121.771843 
L 165.407244 -121.501984 
L 164.63622 -121.232126 
L 163.865197 -120.962268 
L 163.094173 -120.692409 
L 162.32315 -120.422551 
L 161.552126 -120.152693 
L 160.781102 -119.882835 
L 160.010079 -119.612976 
L 159.239055 -119.343118 
L 158.468031 -119.07326 
L 157.697008 -118.803402 
L 156.925984 -118.533543 
L 156.154961 -118.263685 
L 155.383937 -117.993827 
L 154.612913 -117.723969 
L 153.84189 -117.45411 
L 153.070866 -117.184252 
L 152.299843 -116.914394 
L 151.528819 -116.644535 
L 150.757795 -116.374677 
L 149.986772 -116.104819 
L 149.215748 -115.834961 
L 148.444724 -115.565102 
L 147.673701 -115.295244 
L 146.902677 -115.025386 
L 146.131654 -114.755528 
L 145.36063 -114.485669 
L 144.589606 -114.215811 
L 143.818583 -113.945953 
L 143.047559 -113.676094 
L 142.276535 -113.406236 
L 141.505512 -113.136378 
L 140.734488 -112.86652 
L 139.963465 -112.596661 
L 139.192441 -112.326803 
L 138.421417 -112.056945 
L 137.650394 -111.787087 
L 136.87937 -111.517228 
L 136.108346 -111.24737 
L 135.337323 -110.977512 
L 134.566299 -110.707654 
L 133.795276 -110.437795 
L 133.024252 -110.167937 
L 132.253228 -109.898079 
L 131.482205 -109.62822 
L 130.711181 -109.358362 
L 129.940157 -109.088504 
L 129.169134 -108.818646 
L 128.39811 -108.548787 
L 127.627087 -108.278929 
L 126.856063 -108.009071 
L 126.085039 -107.739213 
L 125.314016 -107.469354 
L 124.542992 -107.199496 
L 123.771969 -106.929638 
L 123.000945 -106.65978 
L 122.229921 -106.389921 
L 121.458898 -106.120063 
L 120.687874 -105.850205 
L 119.91685 -105.580346 
L 119.145827 -105.310488 
L 118.374803 -105.04063 
L 117.60378 -104.770772 
L 116.832756 -104.500913 
L 116.061732 -104.231055 
L 115.290709 -103.961197 
L 114.519685 -103.691339 
L 113.748661 -103.42148 
L 112.977638 -103.151622 
L 112.206614 -102.881764 
L 111.435591 -102.611906 
L 110.664567 -102.342047 
L 109.893543 -102.072189 
L 109.12252 -101.802331 
L 108.351496 -101.532472 
L 107.580472 -101.262614 
L 106.809449 -100.992756 
L 106.038425 -100.722898 
L 105.267402 -100.453039 
L 104.496378 -100.183181 
L 103.725354 -99.913323 
L 102.954331 -99.643465 
L 102.183307 -99.373606 
L 101.412283 -99.103748 
L 100.64126 -98.83389 
L 99.870236 -98.564031 
L 99.099213 -98.294173 
L 98.328189 -98.024315 
L 97.557165 -97.754457 
L 96.786142 -97.484598 
L 96.015118 -97.21474 
L 95.244094 -96.944882 
L 94.473071 -96.675024 
L 93.702047 -96.405165 
L 92.931024 -96.135307 
L 92.16 -95.865449 
L 91.388976 -95.595591 
L 90.617953 -95.325732 
L 89.846929 -95.055874 
L 89.075906 -94.786016 
L 88.304882 -94.516157 
L 87.533858 -94.246299 
L 86.762835 -93.976441 
L 85.991811 -93.706583 
L 85.220787 -93.436724 
L 84.449764 -93.166866 
L 83.67874 -92.897008 
L 82.907717 -92.62715 
L 82.136693 -92.357291 
L 81.365669 -92.087433 
L 80.594646 -91.817575 
L 79.823622 -91.547717 
L 79.052598 -91.277858 
L 78.281575 -91.008 
L 77.510551 -90.738142 
L 76.739528 -90.468283 
L 75.968504 -90.198425 
L 75.19748 -89.928567 
L 74.426457 -89.658709 
L 73.655433 -89.38885 
L 72.884409 -89.118992 
L 72.113386 -88.849134 
L 71.342362 -88.579276 
L 70.571339 -88.309417 
L 69.800315 -88.039559 
L 69.029291 -87.769701 
L 68.258268 -87.499843 
L 67.487244 -87.229984 
L 66.71622 -86.960126 
L 65.945197 -86.690268 
L 65.174173 -86.420409 
L 64.40315 -86.150551 
L 63.632126 -85.880693 
L 62.861102 -85.610835 
L 62.090079 -85.340976 
L 61.319055 -85.071118 
L 60.548031 -84.80126 
L 59.777008 -84.531402 
L 59.005984 -84.261543 
L 58.234961 -83.991685 
L 57.463937 -83.721827 
L 56.692913 -83.451969 
z
"/>
    </defs>
    <g clip-path="url(#pf02eeda1f2)">
     <use xlink:href="#m7442d3a87d" x="0" y="272.125984" style="fill: #f4e8c8; fill-opacity: 0.72"/>
    </g>
   </g>
   <g id="FillBetweenPolyCollection_3">
    <defs>
     <path id="m36627b3494" d="M 56.692913 -229.946457 
L 56.692913 -83.451969 
L 57.463937 -83.721827 
L 58.234961 -83.991685 
L 59.005984 -84.261543 
L 59.777008 -84.531402 
L 60.548031 -84.80126 
L 61.319055 -85.071118 
L 62.090079 -85.340976 
L 62.861102 -85.610835 
L 63.632126 -85.880693 
L 64.40315 -86.150551 
L 65.174173 -86.420409 
L 65.945197 -86.690268 
L 66.71622 -86.960126 
L 67.487244 -87.229984 
L 68.258268 -87.499843 
L 69.029291 -87.769701 
L 69.800315 -88.039559 
L 70.571339 -88.309417 
L 71.342362 -88.579276 
L 72.113386 -88.849134 
L 72.884409 -89.118992 
L 73.655433 -89.38885 
L 74.426457 -89.658709 
L 75.19748 -89.928567 
L 75.968504 -90.198425 
L 76.739528 -90.468283 
L 77.510551 -90.738142 
L 78.281575 -91.008 
L 79.052598 -91.277858 
L 79.823622 -91.547717 
L 80.594646 -91.817575 
L 81.365669 -92.087433 
L 82.136693 -92.357291 
L 82.907717 -92.62715 
L 83.67874 -92.897008 
L 84.449764 -93.166866 
L 85.220787 -93.436724 
L 85.991811 -93.706583 
L 86.762835 -93.976441 
L 87.533858 -94.246299 
L 88.304882 -94.516157 
L 89.075906 -94.786016 
L 89.846929 -95.055874 
L 90.617953 -95.325732 
L 91.388976 -95.595591 
L 92.16 -95.865449 
L 92.931024 -96.135307 
L 93.702047 -96.405165 
L 94.473071 -96.675024 
L 95.244094 -96.944882 
L 96.015118 -97.21474 
L 96.786142 -97.484598 
L 97.557165 -97.754457 
L 98.328189 -98.024315 
L 99.099213 -98.294173 
L 99.870236 -98.564031 
L 100.64126 -98.83389 
L 101.412283 -99.103748 
L 102.183307 -99.373606 
L 102.954331 -99.643465 
L 103.725354 -99.913323 
L 104.496378 -100.183181 
L 105.267402 -100.453039 
L 106.038425 -100.722898 
L 106.809449 -100.992756 
L 107.580472 -101.262614 
L 108.351496 -101.532472 
L 109.12252 -101.802331 
L 109.893543 -102.072189 
L 110.664567 -102.342047 
L 111.435591 -102.611906 
L 112.206614 -102.881764 
L 112.977638 -103.151622 
L 113.748661 -103.42148 
L 114.519685 -103.691339 
L 115.290709 -103.961197 
L 116.061732 -104.231055 
L 116.832756 -104.500913 
L 117.60378 -104.770772 
L 118.374803 -105.04063 
L 119.145827 -105.310488 
L 119.91685 -105.580346 
L 120.687874 -105.850205 
L 121.458898 -106.120063 
L 122.229921 -106.389921 
L 123.000945 -106.65978 
L 123.771969 -106.929638 
L 124.542992 -107.199496 
L 125.314016 -107.469354 
L 126.085039 -107.739213 
L 126.856063 -108.009071 
L 127.627087 -108.278929 
L 128.39811 -108.548787 
L 129.169134 -108.818646 
L 129.940157 -109.088504 
L 130.711181 -109.358362 
L 131.482205 -109.62822 
L 132.253228 -109.898079 
L 133.024252 -110.167937 
L 133.795276 -110.437795 
L 134.566299 -110.707654 
L 135.337323 -110.977512 
L 136.108346 -111.24737 
L 136.87937 -111.517228 
L 137.650394 -111.787087 
L 138.421417 -112.056945 
L 139.192441 -112.326803 
L 139.963465 -112.596661 
L 140.734488 -112.86652 
L 141.505512 -113.136378 
L 142.276535 -113.406236 
L 143.047559 -113.676094 
L 143.818583 -113.945953 
L 144.589606 -114.215811 
L 145.36063 -114.485669 
L 146.131654 -114.755528 
L 146.902677 -115.025386 
L 147.673701 -115.295244 
L 148.444724 -115.565102 
L 149.215748 -115.834961 
L 149.986772 -116.104819 
L 150.757795 -116.374677 
L 151.528819 -116.644535 
L 152.299843 -116.914394 
L 153.070866 -117.184252 
L 153.84189 -117.45411 
L 154.612913 -117.723969 
L 155.383937 -117.993827 
L 156.154961 -118.263685 
L 156.925984 -118.533543 
L 157.697008 -118.803402 
L 158.468031 -119.07326 
L 159.239055 -119.343118 
L 160.010079 -119.612976 
L 160.781102 -119.882835 
L 161.552126 -120.152693 
L 162.32315 -120.422551 
L 163.094173 -120.692409 
L 163.865197 -120.962268 
L 164.63622 -121.232126 
L 165.407244 -121.501984 
L 166.178268 -121.771843 
L 166.949291 -122.041701 
L 167.720315 -122.311559 
L 168.491339 -122.581417 
L 169.262362 -122.851276 
L 170.033386 -123.121134 
L 170.804409 -123.390992 
L 171.575433 -123.66085 
L 172.346457 -123.930709 
L 173.11748 -124.200567 
L 173.888504 -124.470425 
L 174.659528 -124.740283 
L 175.430551 -125.010142 
L 176.201575 -125.28 
L 176.972598 -125.549858 
L 177.743622 -125.819717 
L 178.514646 -126.089575 
L 179.285669 -126.359433 
L 180.056693 -126.629291 
L 180.827717 -126.89915 
L 181.59874 -127.169008 
L 182.369764 -127.438866 
L 183.140787 -127.708724 
L 183.911811 -127.978583 
L 184.682835 -128.248441 
L 185.453858 -128.518299 
L 186.224882 -128.788157 
L 186.995906 -129.058016 
L 187.766929 -129.327874 
L 188.537953 -129.597732 
L 189.308976 -129.867591 
L 190.08 -130.137449 
L 190.851024 -130.407307 
L 191.622047 -130.677165 
L 192.393071 -130.947024 
L 193.164094 -131.216882 
L 193.935118 -131.48674 
L 194.706142 -131.756598 
L 195.477165 -132.026457 
L 196.248189 -132.296315 
L 197.019213 -132.566173 
L 197.790236 -132.836031 
L 198.56126 -133.10589 
L 199.332283 -133.375748 
L 200.103307 -133.645606 
L 200.874331 -133.915465 
L 201.645354 -134.185323 
L 202.416378 -134.455181 
L 203.187402 -134.725039 
L 203.958425 -134.994898 
L 204.729449 -135.264756 
L 205.500472 -135.534614 
L 206.271496 -135.804472 
L 207.04252 -136.074331 
L 207.813543 -136.344189 
L 208.584567 -136.614047 
L 209.355591 -136.883906 
L 210.126614 -137.153764 
L 210.897638 -137.423622 
L 211.668661 -137.69348 
L 212.439685 -137.963339 
L 213.210709 -138.233197 
L 213.981732 -138.503055 
L 214.752756 -138.772913 
L 215.52378 -139.042772 
L 216.294803 -139.31263 
L 217.065827 -139.582488 
L 217.83685 -139.852346 
L 218.607874 -140.122205 
L 219.378898 -140.392063 
L 220.149921 -140.661921 
L 220.920945 -140.93178 
L 221.691969 -141.201638 
L 222.462992 -141.471496 
L 223.234016 -141.741354 
L 224.005039 -142.011213 
L 224.776063 -142.281071 
L 225.547087 -142.550929 
L 226.31811 -142.820787 
L 227.089134 -143.090646 
L 227.860157 -143.360504 
L 228.631181 -143.630362 
L 229.402205 -143.90022 
L 230.173228 -144.170079 
L 230.944252 -144.439937 
L 231.715276 -144.709795 
L 232.486299 -144.979654 
L 233.257323 -145.249512 
L 234.028346 -145.51937 
L 234.79937 -145.789228 
L 235.570394 -146.059087 
L 236.341417 -146.328945 
L 237.112441 -146.598803 
L 237.883465 -146.868661 
L 238.654488 -147.13852 
L 239.425512 -147.408378 
L 240.196535 -147.678236 
L 240.967559 -147.948094 
L 241.738583 -148.217953 
L 242.509606 -148.487811 
L 243.28063 -148.757669 
L 244.051654 -149.027528 
L 244.822677 -149.297386 
L 245.593701 -149.567244 
L 246.364724 -149.837102 
L 247.135748 -150.106961 
L 247.906772 -150.376819 
L 248.677795 -150.646677 
L 249.448819 -150.916535 
L 250.219843 -151.186394 
L 250.990866 -151.456252 
L 251.76189 -151.72611 
L 252.532913 -151.995969 
L 253.303937 -152.265827 
L 254.074961 -152.535685 
L 254.845984 -152.805543 
L 255.617008 -153.075402 
L 256.388031 -153.34526 
L 257.159055 -153.615118 
L 257.930079 -153.884976 
L 258.701102 -154.154835 
L 259.472126 -154.424693 
L 260.24315 -154.694551 
L 261.014173 -154.964409 
L 261.785197 -155.234268 
L 262.55622 -155.504126 
L 263.327244 -155.773984 
L 264.098268 -156.043843 
L 264.869291 -156.313701 
L 265.640315 -156.583559 
L 266.411339 -156.853417 
L 267.182362 -157.123276 
L 267.953386 -157.393134 
L 268.724409 -157.662992 
L 269.495433 -157.93285 
L 270.266457 -158.202709 
L 271.03748 -158.472567 
L 271.808504 -158.742425 
L 272.579528 -159.012283 
L 273.350551 -159.282142 
L 274.121575 -159.552 
L 274.892598 -159.821858 
L 275.663622 -160.091717 
L 276.434646 -160.361575 
L 277.205669 -160.631433 
L 277.976693 -160.901291 
L 278.747717 -161.17115 
L 279.51874 -161.441008 
L 280.289764 -161.710866 
L 281.060787 -161.980724 
L 281.831811 -162.250583 
L 282.602835 -162.520441 
L 283.373858 -162.790299 
L 284.144882 -163.060157 
L 284.915906 -163.330016 
L 285.686929 -163.599874 
L 286.457953 -163.869732 
L 287.228976 -164.139591 
L 288 -164.409449 
L 288.771024 -164.679307 
L 289.542047 -164.949165 
L 290.313071 -165.219024 
L 291.084094 -165.488882 
L 291.855118 -165.75874 
L 292.626142 -166.028598 
L 293.397165 -166.298457 
L 294.168189 -166.568315 
L 294.939213 -166.838173 
L 295.710236 -167.108031 
L 296.48126 -167.37789 
L 297.252283 -167.647748 
L 298.023307 -167.917606 
L 298.794331 -168.187465 
L 299.565354 -168.457323 
L 300.336378 -168.727181 
L 301.107402 -168.997039 
L 301.878425 -169.266898 
L 302.649449 -169.536756 
L 303.420472 -169.806614 
L 304.191496 -170.076472 
L 304.96252 -170.346331 
L 305.733543 -170.616189 
L 306.504567 -170.886047 
L 307.275591 -171.155906 
L 308.046614 -171.425764 
L 308.817638 -171.695622 
L 309.588661 -171.96548 
L 310.359685 -172.235339 
L 311.130709 -172.505197 
L 311.901732 -172.775055 
L 312.672756 -173.044913 
L 313.44378 -173.314772 
L 314.214803 -173.58463 
L 314.985827 -173.854488 
L 315.75685 -174.124346 
L 316.527874 -174.394205 
L 317.298898 -174.664063 
L 318.069921 -174.933921 
L 318.840945 -175.20378 
L 319.611969 -175.473638 
L 320.382992 -175.743496 
L 321.154016 -176.013354 
L 321.925039 -176.283213 
L 322.696063 -176.553071 
L 323.467087 -176.822929 
L 324.23811 -177.092787 
L 325.009134 -177.362646 
L 325.780157 -177.632504 
L 326.551181 -177.902362 
L 327.322205 -178.17222 
L 328.093228 -178.442079 
L 328.864252 -178.711937 
L 329.635276 -178.981795 
L 330.406299 -179.251654 
L 331.177323 -179.521512 
L 331.948346 -179.79137 
L 332.71937 -180.061228 
L 333.490394 -180.331087 
L 334.261417 -180.600945 
L 335.032441 -180.870803 
L 335.803465 -181.140661 
L 336.574488 -181.41052 
L 337.345512 -181.680378 
L 338.116535 -181.950236 
L 338.887559 -182.220094 
L 339.658583 -182.489953 
L 340.429606 -182.759811 
L 341.20063 -183.029669 
L 341.971654 -183.299528 
L 342.742677 -183.569386 
L 343.513701 -183.839244 
L 344.284724 -184.109102 
L 345.055748 -184.378961 
L 345.826772 -184.648819 
L 346.597795 -184.918677 
L 347.368819 -185.188535 
L 348.139843 -185.458394 
L 348.910866 -185.728252 
L 349.68189 -185.99811 
L 350.452913 -186.267969 
L 351.223937 -186.537827 
L 351.994961 -186.807685 
L 352.765984 -187.077543 
L 353.537008 -187.347402 
L 354.308031 -187.61726 
L 355.079055 -187.887118 
L 355.850079 -188.156976 
L 356.621102 -188.426835 
L 357.392126 -188.696693 
L 358.16315 -188.966551 
L 358.934173 -189.236409 
L 359.705197 -189.506268 
L 360.47622 -189.776126 
L 361.247244 -190.045984 
L 362.018268 -190.315843 
L 362.789291 -190.585701 
L 363.560315 -190.855559 
L 364.331339 -191.125417 
L 365.102362 -191.395276 
L 365.873386 -191.665134 
L 366.644409 -191.934992 
L 367.415433 -192.20485 
L 368.186457 -192.474709 
L 368.95748 -192.744567 
L 369.728504 -193.014425 
L 370.499528 -193.284283 
L 371.270551 -193.554142 
L 372.041575 -193.824 
L 372.812598 -194.093858 
L 373.583622 -194.363717 
L 374.354646 -194.633575 
L 375.125669 -194.903433 
L 375.896693 -195.173291 
L 376.667717 -195.44315 
L 377.43874 -195.713008 
L 378.209764 -195.982866 
L 378.980787 -196.252724 
L 379.751811 -196.522583 
L 380.522835 -196.792441 
L 381.293858 -197.062299 
L 382.064882 -197.332157 
L 382.835906 -197.602016 
L 383.606929 -197.871874 
L 384.377953 -198.141732 
L 385.148976 -198.411591 
L 385.92 -198.681449 
L 386.691024 -198.951307 
L 387.462047 -199.221165 
L 388.233071 -199.491024 
L 389.004094 -199.760882 
L 389.775118 -200.03074 
L 390.546142 -200.300598 
L 391.317165 -200.570457 
L 392.088189 -200.840315 
L 392.859213 -201.110173 
L 393.630236 -201.380031 
L 394.40126 -201.64989 
L 395.172283 -201.919748 
L 395.943307 -202.189606 
L 396.714331 -202.459465 
L 397.485354 -202.729323 
L 398.256378 -202.999181 
L 399.027402 -203.269039 
L 399.798425 -203.538898 
L 400.569449 -203.808756 
L 401.340472 -204.078614 
L 402.111496 -204.348472 
L 402.88252 -204.618331 
L 403.653543 -204.888189 
L 404.424567 -205.158047 
L 405.195591 -205.427906 
L 405.966614 -205.697764 
L 406.737638 -205.967622 
L 407.508661 -206.23748 
L 408.279685 -206.507339 
L 409.050709 -206.777197 
L 409.821732 -207.047055 
L 410.592756 -207.316913 
L 411.36378 -207.586772 
L 412.134803 -207.85663 
L 412.905827 -208.126488 
L 413.67685 -208.396346 
L 414.447874 -208.666205 
L 415.218898 -208.936063 
L 415.989921 -209.205921 
L 416.760945 -209.47578 
L 417.531969 -209.745638 
L 418.302992 -210.015496 
L 419.074016 -210.285354 
L 419.845039 -210.555213 
L 420.616063 -210.825071 
L 421.387087 -211.094929 
L 422.15811 -211.364787 
L 422.929134 -211.634646 
L 423.700157 -211.904504 
L 424.471181 -212.174362 
L 425.242205 -212.44422 
L 426.013228 -212.714079 
L 426.784252 -212.983937 
L 427.555276 -213.253795 
L 428.326299 -213.523654 
L 429.097323 -213.793512 
L 429.868346 -214.06337 
L 430.63937 -214.333228 
L 431.410394 -214.603087 
L 432.181417 -214.872945 
L 432.952441 -215.142803 
L 433.723465 -215.412661 
L 434.494488 -215.68252 
L 435.265512 -215.952378 
L 436.036535 -216.222236 
L 436.807559 -216.492094 
L 437.578583 -216.761953 
L 438.349606 -217.031811 
L 439.12063 -217.301669 
L 439.891654 -217.571528 
L 440.662677 -217.841386 
L 441.433701 -218.111244 
L 442.204724 -218.381102 
L 442.204724 -229.946457 
L 442.204724 -229.946457 
L 441.433701 -229.946457 
L 440.662677 -229.946457 
L 439.891654 -229.946457 
L 439.12063 -229.946457 
L 438.349606 -229.946457 
L 437.578583 -229.946457 
L 436.807559 -229.946457 
L 436.036535 -229.946457 
L 435.265512 -229.946457 
L 434.494488 -229.946457 
L 433.723465 -229.946457 
L 432.952441 -229.946457 
L 432.181417 -229.946457 
L 431.410394 -229.946457 
L 430.63937 -229.946457 
L 429.868346 -229.946457 
L 429.097323 -229.946457 
L 428.326299 -229.946457 
L 427.555276 -229.946457 
L 426.784252 -229.946457 
L 426.013228 -229.946457 
L 425.242205 -229.946457 
L 424.471181 -229.946457 
L 423.700157 -229.946457 
L 422.929134 -229.946457 
L 422.15811 -229.946457 
L 421.387087 -229.946457 
L 420.616063 -229.946457 
L 419.845039 -229.946457 
L 419.074016 -229.946457 
L 418.302992 -229.946457 
L 417.531969 -229.946457 
L 416.760945 -229.946457 
L 415.989921 -229.946457 
L 415.218898 -229.946457 
L 414.447874 -229.946457 
L 413.67685 -229.946457 
L 412.905827 -229.946457 
L 412.134803 -229.946457 
L 411.36378 -229.946457 
L 410.592756 -229.946457 
L 409.821732 -229.946457 
L 409.050709 -229.946457 
L 408.279685 -229.946457 
L 407.508661 -229.946457 
L 406.737638 -229.946457 
L 405.966614 -229.946457 
L 405.195591 -229.946457 
L 404.424567 -229.946457 
L 403.653543 -229.946457 
L 402.88252 -229.946457 
L 402.111496 -229.946457 
L 401.340472 -229.946457 
L 400.569449 -229.946457 
L 399.798425 -229.946457 
L 399.027402 -229.946457 
L 398.256378 -229.946457 
L 397.485354 -229.946457 
L 396.714331 -229.946457 
L 395.943307 -229.946457 
L 395.172283 -229.946457 
L 394.40126 -229.946457 
L 393.630236 -229.946457 
L 392.859213 -229.946457 
L 392.088189 -229.946457 
L 391.317165 -229.946457 
L 390.546142 -229.946457 
L 389.775118 -229.946457 
L 389.004094 -229.946457 
L 388.233071 -229.946457 
L 387.462047 -229.946457 
L 386.691024 -229.946457 
L 385.92 -229.946457 
L 385.148976 -229.946457 
L 384.377953 -229.946457 
L 383.606929 -229.946457 
L 382.835906 -229.946457 
L 382.064882 -229.946457 
L 381.293858 -229.946457 
L 380.522835 -229.946457 
L 379.751811 -229.946457 
L 378.980787 -229.946457 
L 378.209764 -229.946457 
L 377.43874 -229.946457 
L 376.667717 -229.946457 
L 375.896693 -229.946457 
L 375.125669 -229.946457 
L 374.354646 -229.946457 
L 373.583622 -229.946457 
L 372.812598 -229.946457 
L 372.041575 -229.946457 
L 371.270551 -229.946457 
L 370.499528 -229.946457 
L 369.728504 -229.946457 
L 368.95748 -229.946457 
L 368.186457 -229.946457 
L 367.415433 -229.946457 
L 366.644409 -229.946457 
L 365.873386 -229.946457 
L 365.102362 -229.946457 
L 364.331339 -229.946457 
L 363.560315 -229.946457 
L 362.789291 -229.946457 
L 362.018268 -229.946457 
L 361.247244 -229.946457 
L 360.47622 -229.946457 
L 359.705197 -229.946457 
L 358.934173 -229.946457 
L 358.16315 -229.946457 
L 357.392126 -229.946457 
L 356.621102 -229.946457 
L 355.850079 -229.946457 
L 355.079055 -229.946457 
L 354.308031 -229.946457 
L 353.537008 -229.946457 
L 352.765984 -229.946457 
L 351.994961 -229.946457 
L 351.223937 -229.946457 
L 350.452913 -229.946457 
L 349.68189 -229.946457 
L 348.910866 -229.946457 
L 348.139843 -229.946457 
L 347.368819 -229.946457 
L 346.597795 -229.946457 
L 345.826772 -229.946457 
L 345.055748 -229.946457 
L 344.284724 -229.946457 
L 343.513701 -229.946457 
L 342.742677 -229.946457 
L 341.971654 -229.946457 
L 341.20063 -229.946457 
L 340.429606 -229.946457 
L 339.658583 -229.946457 
L 338.887559 -229.946457 
L 338.116535 -229.946457 
L 337.345512 -229.946457 
L 336.574488 -229.946457 
L 335.803465 -229.946457 
L 335.032441 -229.946457 
L 334.261417 -229.946457 
L 333.490394 -229.946457 
L 332.71937 -229.946457 
L 331.948346 -229.946457 
L 331.177323 -229.946457 
L 330.406299 -229.946457 
L 329.635276 -229.946457 
L 328.864252 -229.946457 
L 328.093228 -229.946457 
L 327.322205 -229.946457 
L 326.551181 -229.946457 
L 325.780157 -229.946457 
L 325.009134 -229.946457 
L 324.23811 -229.946457 
L 323.467087 -229.946457 
L 322.696063 -229.946457 
L 321.925039 -229.946457 
L 321.154016 -229.946457 
L 320.382992 -229.946457 
L 319.611969 -229.946457 
L 318.840945 -229.946457 
L 318.069921 -229.946457 
L 317.298898 -229.946457 
L 316.527874 -229.946457 
L 315.75685 -229.946457 
L 314.985827 -229.946457 
L 314.214803 -229.946457 
L 313.44378 -229.946457 
L 312.672756 -229.946457 
L 311.901732 -229.946457 
L 311.130709 -229.946457 
L 310.359685 -229.946457 
L 309.588661 -229.946457 
L 308.817638 -229.946457 
L 308.046614 -229.946457 
L 307.275591 -229.946457 
L 306.504567 -229.946457 
L 305.733543 -229.946457 
L 304.96252 -229.946457 
L 304.191496 -229.946457 
L 303.420472 -229.946457 
L 302.649449 -229.946457 
L 301.878425 -229.946457 
L 301.107402 -229.946457 
L 300.336378 -229.946457 
L 299.565354 -229.946457 
L 298.794331 -229.946457 
L 298.023307 -229.946457 
L 297.252283 -229.946457 
L 296.48126 -229.946457 
L 295.710236 -229.946457 
L 294.939213 -229.946457 
L 294.168189 -229.946457 
L 293.397165 -229.946457 
L 292.626142 -229.946457 
L 291.855118 -229.946457 
L 291.084094 -229.946457 
L 290.313071 -229.946457 
L 289.542047 -229.946457 
L 288.771024 -229.946457 
L 288 -229.946457 
L 287.228976 -229.946457 
L 286.457953 -229.946457 
L 285.686929 -229.946457 
L 284.915906 -229.946457 
L 284.144882 -229.946457 
L 283.373858 -229.946457 
L 282.602835 -229.946457 
L 281.831811 -229.946457 
L 281.060787 -229.946457 
L 280.289764 -229.946457 
L 279.51874 -229.946457 
L 278.747717 -229.946457 
L 277.976693 -229.946457 
L 277.205669 -229.946457 
L 276.434646 -229.946457 
L 275.663622 -229.946457 
L 274.892598 -229.946457 
L 274.121575 -229.946457 
L 273.350551 -229.946457 
L 272.579528 -229.946457 
L 271.808504 -229.946457 
L 271.03748 -229.946457 
L 270.266457 -229.946457 
L 269.495433 -229.946457 
L 268.724409 -229.946457 
L 267.953386 -229.946457 
L 267.182362 -229.946457 
L 266.411339 -229.946457 
L 265.640315 -229.946457 
L 264.869291 -229.946457 
L 264.098268 -229.946457 
L 263.327244 -229.946457 
L 262.55622 -229.946457 
L 261.785197 -229.946457 
L 261.014173 -229.946457 
L 260.24315 -229.946457 
L 259.472126 -229.946457 
L 258.701102 -229.946457 
L 257.930079 -229.946457 
L 257.159055 -229.946457 
L 256.388031 -229.946457 
L 255.617008 -229.946457 
L 254.845984 -229.946457 
L 254.074961 -229.946457 
L 253.303937 -229.946457 
L 252.532913 -229.946457 
L 251.76189 -229.946457 
L 250.990866 -229.946457 
L 250.219843 -229.946457 
L 249.448819 -229.946457 
L 248.677795 -229.946457 
L 247.906772 -229.946457 
L 247.135748 -229.946457 
L 246.364724 -229.946457 
L 245.593701 -229.946457 
L 244.822677 -229.946457 
L 244.051654 -229.946457 
L 243.28063 -229.946457 
L 242.509606 -229.946457 
L 241.738583 -229.946457 
L 240.967559 -229.946457 
L 240.196535 -229.946457 
L 239.425512 -229.946457 
L 238.654488 -229.946457 
L 237.883465 -229.946457 
L 237.112441 -229.946457 
L 236.341417 -229.946457 
L 235.570394 -229.946457 
L 234.79937 -229.946457 
L 234.028346 -229.946457 
L 233.257323 -229.946457 
L 232.486299 -229.946457 
L 231.715276 -229.946457 
L 230.944252 -229.946457 
L 230.173228 -229.946457 
L 229.402205 -229.946457 
L 228.631181 -229.946457 
L 227.860157 -229.946457 
L 227.089134 -229.946457 
L 226.31811 -229.946457 
L 225.547087 -229.946457 
L 224.776063 -229.946457 
L 224.005039 -229.946457 
L 223.234016 -229.946457 
L 222.462992 -229.946457 
L 221.691969 -229.946457 
L 220.920945 -229.946457 
L 220.149921 -229.946457 
L 219.378898 -229.946457 
L 218.607874 -229.946457 
L 217.83685 -229.946457 
L 217.065827 -229.946457 
L 216.294803 -229.946457 
L 215.52378 -229.946457 
L 214.752756 -229.946457 
L 213.981732 -229.946457 
L 213.210709 -229.946457 
L 212.439685 -229.946457 
L 211.668661 -229.946457 
L 210.897638 -229.946457 
L 210.126614 -229.946457 
L 209.355591 -229.946457 
L 208.584567 -229.946457 
L 207.813543 -229.946457 
L 207.04252 -229.946457 
L 206.271496 -229.946457 
L 205.500472 -229.946457 
L 204.729449 -229.946457 
L 203.958425 -229.946457 
L 203.187402 -229.946457 
L 202.416378 -229.946457 
L 201.645354 -229.946457 
L 200.874331 -229.946457 
L 200.103307 -229.946457 
L 199.332283 -229.946457 
L 198.56126 -229.946457 
L 197.790236 -229.946457 
L 197.019213 -229.946457 
L 196.248189 -229.946457 
L 195.477165 -229.946457 
L 194.706142 -229.946457 
L 193.935118 -229.946457 
L 193.164094 -229.946457 
L 192.393071 -229.946457 
L 191.622047 -229.946457 
L 190.851024 -229.946457 
L 190.08 -229.946457 
L 189.308976 -229.946457 
L 188.537953 -229.946457 
L 187.766929 -229.946457 
L 186.995906 -229.946457 
L 186.224882 -229.946457 
L 185.453858 -229.946457 
L 184.682835 -229.946457 
L 183.911811 -229.946457 
L 183.140787 -229.946457 
L 182.369764 -229.946457 
L 181.59874 -229.946457 
L 180.827717 -229.946457 
L 180.056693 -229.946457 
L 179.285669 -229.946457 
L 178.514646 -229.946457 
L 177.743622 -229.946457 
L 176.972598 -229.946457 
L 176.201575 -229.946457 
L 175.430551 -229.946457 
L 174.659528 -229.946457 
L 173.888504 -229.946457 
L 173.11748 -229.946457 
L 172.346457 -229.946457 
L 171.575433 -229.946457 
L 170.804409 -229.946457 
L 170.033386 -229.946457 
L 169.262362 -229.946457 
L 168.491339 -229.946457 
L 167.720315 -229.946457 
L 166.949291 -229.946457 
L 166.178268 -229.946457 
L 165.407244 -229.946457 
L 164.63622 -229.946457 
L 163.865197 -229.946457 
L 163.094173 -229.946457 
L 162.32315 -229.946457 
L 161.552126 -229.946457 
L 160.781102 -229.946457 
L 160.010079 -229.946457 
L 159.239055 -229.946457 
L 158.468031 -229.946457 
L 157.697008 -229.946457 
L 156.925984 -229.946457 
L 156.154961 -229.946457 
L 155.383937 -229.946457 
L 154.612913 -229.946457 
L 153.84189 -229.946457 
L 153.070866 -229.946457 
L 152.299843 -229.946457 
L 151.528819 -229.946457 
L 150.757795 -229.946457 
L 149.986772 -229.946457 
L 149.215748 -229.946457 
L 148.444724 -229.946457 
L 147.673701 -229.946457 
L 146.902677 -229.946457 
L 146.131654 -229.946457 
L 145.36063 -229.946457 
L 144.589606 -229.946457 
L 143.818583 -229.946457 
L 143.047559 -229.946457 
L 142.276535 -229.946457 
L 141.505512 -229.946457 
L 140.734488 -229.946457 
L 139.963465 -229.946457 
L 139.192441 -229.946457 
L 138.421417 -229.946457 
L 137.650394 -229.946457 
L 136.87937 -229.946457 
L 136.108346 -229.946457 
L 135.337323 -229.946457 
L 134.566299 -229.946457 
L 133.795276 -229.946457 
L 133.024252 -229.946457 
L 132.253228 -229.946457 
L 131.482205 -229.946457 
L 130.711181 -229.946457 
L 129.940157 -229.946457 
L 129.169134 -229.946457 
L 128.39811 -229.946457 
L 127.627087 -229.946457 
L 126.856063 -229.946457 
L 126.085039 -229.946457 
L 125.314016 -229.946457 
L 124.542992 -229.946457 
L 123.771969 -229.946457 
L 123.000945 -229.946457 
L 122.229921 -229.946457 
L 121.458898 -229.946457 
L 120.687874 -229.946457 
L 119.91685 -229.946457 
L 119.145827 -229.946457 
L 118.374803 -229.946457 
L 117.60378 -229.946457 
L 116.832756 -229.946457 
L 116.061732 -229.946457 
L 115.290709 -229.946457 
L 114.519685 -229.946457 
L 113.748661 -229.946457 
L 112.977638 -229.946457 
L 112.206614 -229.946457 
L 111.435591 -229.946457 
L 110.664567 -229.946457 
L 109.893543 -229.946457 
L 109.12252 -229.946457 
L 108.351496 -229.946457 
L 107.580472 -229.946457 
L 106.809449 -229.946457 
L 106.038425 -229.946457 
L 105.267402 -229.946457 
L 104.496378 -229.946457 
L 103.725354 -229.946457 
L 102.954331 -229.946457 
L 102.183307 -229.946457 
L 101.412283 -229.946457 
L 100.64126 -229.946457 
L 99.870236 -229.946457 
L 99.099213 -229.946457 
L 98.328189 -229.946457 
L 97.557165 -229.946457 
L 96.786142 -229.946457 
L 96.015118 -229.946457 
L 95.244094 -229.946457 
L 94.473071 -229.946457 
L 93.702047 -229.946457 
L 92.931024 -229.946457 
L 92.16 -229.946457 
L 91.388976 -229.946457 
L 90.617953 -229.946457 
L 89.846929 -229.946457 
L 89.075906 -229.946457 
L 88.304882 -229.946457 
L 87.533858 -229.946457 
L 86.762835 -229.946457 
L 85.991811 -229.946457 
L 85.220787 -229.946457 
L 84.449764 -229.946457 
L 83.67874 -229.946457 
L 82.907717 -229.946457 
L 82.136693 -229.946457 
L 81.365669 -229.946457 
L 80.594646 -229.946457 
L 79.823622 -229.946457 
L 79.052598 -229.946457 
L 78.281575 -229.946457 
L 77.510551 -229.946457 
L 76.739528 -229.946457 
L 75.968504 -229.946457 
L 75.19748 -229.946457 
L 74.426457 -229.946457 
L 73.655433 -229.946457 
L 72.884409 -229.946457 
L 72.113386 -229.946457 
L 71.342362 -229.946457 
L 70.571339 -229.946457 
L 69.800315 -229.946457 
L 69.029291 -229.946457 
L 68.258268 -229.946457 
L 67.487244 -229.946457 
L 66.71622 -229.946457 
L 65.945197 -229.946457 
L 65.174173 -229.946457 
L 64.40315 -229.946457 
L 63.632126 -229.946457 
L 62.861102 -229.946457 
L 62.090079 -229.946457 
L 61.319055 -229.946457 
L 60.548031 -229.946457 
L 59.777008 -229.946457 
L 59.005984 -229.946457 
L 58.234961 -229.946457 
L 57.463937 -229.946457 
L 56.692913 -229.946457 
z
"/>
    </defs>
    <g clip-path="url(#pf02eeda1f2)">
     <use xlink:href="#m36627b3494" x="0" y="272.125984" style="fill: #f2ddda; fill-opacity: 0.66"/>
    </g>
   </g>
   <g id="matplotlib.axis_1">
    <g id="xtick_1">
     <g id="line2d_1">
      <defs>
       <path id="mcca90962ba" d="M 0 0 
L 0 3 
" style="stroke: #000000; stroke-width: 0.65"/>
      </defs>
      <g>
       <use xlink:href="#mcca90962ba" x="56.692913" y="227.225197" style="stroke: #000000; stroke-width: 0.65"/>
      </g>
     </g>
     <g id="text_1">
      <text style="font-size: 6.8px; font-family: 'Arial', 'Helvetica', 'DejaVu Sans', sans-serif; text-anchor: middle" x="56.692913" y="238.592509" transform="rotate(-0 56.692913 238.592509)">0.0</text>
     </g>
    </g>
    <g id="xtick_2">
     <g id="line2d_2">
      <g>
       <use xlink:href="#mcca90962ba" x="133.795276" y="227.225197" style="stroke: #000000; stroke-width: 0.65"/>
      </g>
     </g>
     <g id="text_2">
      <text style="font-size: 6.8px; font-family: 'Arial', 'Helvetica', 'DejaVu Sans', sans-serif; text-anchor: middle" x="133.795276" y="238.592509" transform="rotate(-0 133.795276 238.592509)">0.2</text>
     </g>
    </g>
    <g id="xtick_3">
     <g id="line2d_3">
      <g>
       <use xlink:href="#mcca90962ba" x="210.897638" y="227.225197" style="stroke: #000000; stroke-width: 0.65"/>
      </g>
     </g>
     <g id="text_3">
      <text style="font-size: 6.8px; font-family: 'Arial', 'Helvetica', 'DejaVu Sans', sans-serif; text-anchor: middle" x="210.897638" y="238.592509" transform="rotate(-0 210.897638 238.592509)">0.4</text>
     </g>
    </g>
    <g id="xtick_4">
     <g id="line2d_4">
      <g>
       <use xlink:href="#mcca90962ba" x="288" y="227.225197" style="stroke: #000000; stroke-width: 0.65"/>
      </g>
     </g>
     <g id="text_4">
      <text style="font-size: 6.8px; font-family: 'Arial', 'Helvetica', 'DejaVu Sans', sans-serif; text-anchor: middle" x="288" y="238.592509" transform="rotate(-0 288 238.592509)">0.6</text>
     </g>
    </g>
    <g id="xtick_5">
     <g id="line2d_5">
      <g>
       <use xlink:href="#mcca90962ba" x="365.102362" y="227.225197" style="stroke: #000000; stroke-width: 0.65"/>
      </g>
     </g>
     <g id="text_5">
      <text style="font-size: 6.8px; font-family: 'Arial', 'Helvetica', 'DejaVu Sans', sans-serif; text-anchor: middle" x="365.102362" y="238.592509" transform="rotate(-0 365.102362 238.592509)">0.8</text>
     </g>
    </g>
    <g id="xtick_6">
     <g id="line2d_6">
      <g>
       <use xlink:href="#mcca90962ba" x="442.204724" y="227.225197" style="stroke: #000000; stroke-width: 0.65"/>
      </g>
     </g>
     <g id="text_6">
      <text style="font-size: 6.8px; font-family: 'Arial', 'Helvetica', 'DejaVu Sans', sans-serif; text-anchor: middle" x="442.204724" y="238.592509" transform="rotate(-0 442.204724 238.592509)">1.0</text>
     </g>
    </g>
    <g id="text_7">
     <text style="font-size: 8px; font-family: 'Arial', 'Helvetica', 'DejaVu Sans', sans-serif; text-anchor: middle" x="249.448819" y="249.767759" transform="rotate(-0 249.448819 249.767759)">Platform expenditure share, s</text>
    </g>
   </g>
   <g id="matplotlib.axis_2">
    <g id="ytick_1">
     <g id="line2d_7">
      <defs>
       <path id="mc626429900" d="M 0 0 
L -3 0 
" style="stroke: #000000; stroke-width: 0.65"/>
      </defs>
      <g>
       <use xlink:href="#mc626429900" x="56.692913" y="227.225197" style="stroke: #000000; stroke-width: 0.65"/>
      </g>
     </g>
     <g id="text_8">
      <text style="font-size: 6.8px; font-family: 'Arial', 'Helvetica', 'DejaVu Sans', sans-serif; text-anchor: end" x="50.192913" y="229.658853" transform="rotate(-0 50.192913 229.658853)">0.0</text>
     </g>
    </g>
    <g id="ytick_2">
     <g id="line2d_8">
      <g>
       <use xlink:href="#mc626429900" x="56.692913" y="188.674016" style="stroke: #000000; stroke-width: 0.65"/>
      </g>
     </g>
     <g id="text_9">
      <text style="font-size: 6.8px; font-family: 'Arial', 'Helvetica', 'DejaVu Sans', sans-serif; text-anchor: end" x="50.192913" y="191.107672" transform="rotate(-0 50.192913 191.107672)">0.1</text>
     </g>
    </g>
    <g id="ytick_3">
     <g id="line2d_9">
      <g>
       <use xlink:href="#mc626429900" x="56.692913" y="150.122835" style="stroke: #000000; stroke-width: 0.65"/>
      </g>
     </g>
     <g id="text_10">
      <text style="font-size: 6.8px; font-family: 'Arial', 'Helvetica', 'DejaVu Sans', sans-serif; text-anchor: end" x="50.192913" y="152.556491" transform="rotate(-0 50.192913 152.556491)">0.2</text>
     </g>
    </g>
    <g id="ytick_4">
     <g id="line2d_10">
      <g>
       <use xlink:href="#mc626429900" x="56.692913" y="111.571654" style="stroke: #000000; stroke-width: 0.65"/>
      </g>
     </g>
     <g id="text_11">
      <text style="font-size: 6.8px; font-family: 'Arial', 'Helvetica', 'DejaVu Sans', sans-serif; text-anchor: end" x="50.192913" y="114.00531" transform="rotate(-0 50.192913 114.00531)">0.3</text>
     </g>
    </g>
    <g id="ytick_5">
     <g id="line2d_11">
      <g>
       <use xlink:href="#mc626429900" x="56.692913" y="73.020472" style="stroke: #000000; stroke-width: 0.65"/>
      </g>
     </g>
     <g id="text_12">
      <text style="font-size: 6.8px; font-family: 'Arial', 'Helvetica', 'DejaVu Sans', sans-serif; text-anchor: end" x="50.192913" y="75.454129" transform="rotate(-0 50.192913 75.454129)">0.4</text>
     </g>
    </g>
    <g id="text_13">
     <!-- Marginal capture drag, $\Lambda_g(s,\kappa)$ -->
     <g transform="translate(34.260913 190.142362) rotate(-90)">
      <text>
       <tspan x="0" y="-0.921875" style="font-size: 8px; font-family: 'Arial'">M</tspan>
       <tspan x="6.664062" y="-0.921875" style="font-size: 8px; font-family: 'Arial'">a</tspan>
       <tspan x="11.113281" y="-0.921875" style="font-size: 8px; font-family: 'Arial'">r</tspan>
       <tspan x="13.777344" y="-0.921875" style="font-size: 8px; font-family: 'Arial'">g</tspan>
       <tspan x="18.226562" y="-0.921875" style="font-size: 8px; font-family: 'Arial'">i</tspan>
       <tspan x="20.003906" y="-0.921875" style="font-size: 8px; font-family: 'Arial'">n</tspan>
       <tspan x="24.453125" y="-0.921875" style="font-size: 8px; font-family: 'Arial'">a</tspan>
       <tspan x="28.902344" y="-0.921875" style="font-size: 8px; font-family: 'Arial'">l</tspan>
       <tspan x="30.679688" y="-0.921875" style="font-size: 8px; font-family: 'Arial'"> </tspan>
       <tspan x="32.902344" y="-0.921875" style="font-size: 8px; font-family: 'Arial'">c</tspan>
       <tspan x="36.902344" y="-0.921875" style="font-size: 8px; font-family: 'Arial'">a</tspan>
       <tspan x="41.351562" y="-0.921875" style="font-size: 8px; font-family: 'Arial'">p</tspan>
       <tspan x="45.800781" y="-0.921875" style="font-size: 8px; font-family: 'Arial'">t</tspan>
       <tspan x="48.023438" y="-0.921875" style="font-size: 8px; font-family: 'Arial'">u</tspan>
       <tspan x="52.472656" y="-0.921875" style="font-size: 8px; font-family: 'Arial'">r</tspan>
       <tspan x="55.136719" y="-0.921875" style="font-size: 8px; font-family: 'Arial'">e</tspan>
       <tspan x="59.585938" y="-0.921875" style="font-size: 8px; font-family: 'Arial'"> </tspan>
       <tspan x="61.808594" y="-0.921875" style="font-size: 8px; font-family: 'Arial'">d</tspan>
       <tspan x="66.257812" y="-0.921875" style="font-size: 8px; font-family: 'Arial'">r</tspan>
       <tspan x="68.921875" y="-0.921875" style="font-size: 8px; font-family: 'Arial'">a</tspan>
       <tspan x="73.371094" y="-0.921875" style="font-size: 8px; font-family: 'Arial'">g</tspan>
       <tspan x="77.820312" y="-0.921875" style="font-size: 8px; font-family: 'Arial'">,</tspan>
       <tspan x="80.042969" y="-0.921875" style="font-size: 8px; font-family: 'Arial'"> </tspan>
       <tspan x="82.265625" y="-0.921875" style="font-size: 8px; font-family: 'DejaVu Sans'">Λ</tspan>
       <tspan x="91.588281" y="-0.921875" style="font-size: 8px; font-family: 'DejaVu Sans'">(</tspan>
       <tspan x="98.877344" y="-0.921875" style="font-size: 8px; font-family: 'DejaVu Sans'">,</tspan>
       <tspan x="107.69375" y="-0.921875" style="font-size: 8px; font-family: 'DejaVu Sans'">)</tspan>
       <tspan x="87.814844" y="0.390625" style="font-style: oblique; font-size: 5.6px; font-family: 'DejaVu Sans'">g</tspan>
       <tspan x="94.709375" y="-0.921875" style="font-style: oblique; font-size: 8px; font-family: 'DejaVu Sans'">s</tspan>
       <tspan x="102.978906" y="-0.921875" style="font-style: oblique; font-size: 8px; font-family: 'DejaVu Sans'">κ</tspan>
      </text>
     </g>
    </g>
   </g>
   <g id="line2d_12">
    <path d="M 56.692913 188.674016 
L 442.204724 188.674016 
" clip-path="url(#pf02eeda1f2)" style="fill: none; stroke-dasharray: 1.5,1.7; stroke-dashoffset: 0; stroke: #444444"/>
   </g>
   <g id="line2d_13">
    <path d="M 56.692913 188.674016 
L 442.204724 53.744882 
L 442.204724 53.744882 
" clip-path="url(#pf02eeda1f2)" style="fill: none; stroke-dasharray: 5,2.4; stroke-dashoffset: 0; stroke: #444444"/>
   </g>
   <g id="patch_3">
    <path d="M 56.692913 227.225197 
L 56.692913 42.179528 
" style="fill: none; stroke: #000000; stroke-width: 0.75; stroke-linejoin: miter; stroke-linecap: square"/>
   </g>
   <g id="patch_4">
    <path d="M 56.692913 227.225197 
L 442.204724 227.225197 
" style="fill: none; stroke: #000000; stroke-width: 0.75; stroke-linejoin: miter; stroke-linecap: square"/>
   </g>
   <g id="line2d_14">
    <path d="M 56.692913 227.225197 
L 62.861102 217.812045 
L 69.029291 208.856943 
L 74.426457 201.388176 
L 79.823622 194.254273 
L 85.220787 187.448178 
L 90.617953 180.963027 
L 96.015118 174.792148 
L 101.412283 168.929054 
L 106.809449 163.367433 
L 112.206614 158.101147 
L 117.60378 153.12422 
L 123.000945 148.43084 
L 128.39811 144.015347 
L 133.795276 139.872232 
L 139.192441 135.996129 
L 144.589606 132.381814 
L 149.986772 129.024197 
L 155.383937 125.91832 
L 160.781102 123.059352 
L 166.178268 120.442583 
L 171.575433 118.063425 
L 176.972598 115.917403 
L 182.369764 114.000153 
L 187.766929 112.307422 
L 193.164094 110.835059 
L 198.56126 109.579017 
L 203.958425 108.535345 
L 209.355591 107.700191 
L 214.752756 107.069792 
L 220.149921 106.640477 
L 225.547087 106.408663 
L 231.715276 106.381083 
L 237.883465 106.601802 
L 244.051654 107.065864 
L 250.219843 107.768441 
L 256.388031 108.704834 
L 262.55622 109.870469 
L 268.724409 111.260885 
L 274.892598 112.871742 
L 281.060787 114.698806 
L 287.228976 116.737953 
L 294.168189 119.280499 
L 301.107402 122.080807 
L 308.046614 125.133461 
L 314.985827 128.433198 
L 321.925039 131.974898 
L 328.864252 135.753581 
L 335.803465 139.764407 
L 343.513701 144.487417 
L 351.223937 149.484926 
L 358.934173 154.75084 
L 366.644409 160.279243 
L 374.354646 166.064392 
L 382.835906 172.717947 
L 391.317165 179.668221 
L 399.798425 186.908242 
L 408.279685 194.431253 
L 417.531969 202.953234 
L 426.784252 211.795978 
L 436.036535 220.951527 
L 442.204724 227.225197 
L 442.204724 227.225197 
" clip-path="url(#pf02eeda1f2)" style="fill: none; stroke: #0072b2; stroke-width: 1.8; stroke-linecap: square"/>
   </g>
   <g id="line2d_15">
    <path d="M 56.692913 227.225197 
L 63.632126 220.415718 
L 70.571339 213.935555 
L 77.510551 207.778855 
L 84.449764 201.939902 
L 91.388976 196.413115 
L 98.328189 191.193042 
L 105.267402 186.274358 
L 112.206614 181.65186 
L 119.145827 177.320465 
L 126.085039 173.275203 
L 133.024252 169.511221 
L 139.963465 166.02377 
L 146.902677 162.808212 
L 153.84189 159.860009 
L 160.781102 157.174724 
L 167.720315 154.748019 
L 174.659528 152.575649 
L 181.59874 150.653464 
L 188.537953 148.9774 
L 195.477165 147.543485 
L 202.416378 146.347828 
L 209.355591 145.386623 
L 216.294803 144.656145 
L 223.234016 144.152747 
L 230.173228 143.872857 
L 237.112441 143.81298 
L 244.051654 143.969691 
L 250.990866 144.339638 
L 257.930079 144.919537 
L 264.869291 145.70617 
L 271.808504 146.696386 
L 279.51874 148.031643 
L 287.228976 149.610279 
L 294.939213 151.428241 
L 302.649449 153.481565 
L 310.359685 155.766374 
L 318.069921 158.278874 
L 325.780157 161.015356 
L 333.490394 163.972189 
L 341.971654 167.474974 
L 350.452913 171.235466 
L 358.934173 175.249152 
L 367.415433 179.511622 
L 375.896693 184.018569 
L 384.377953 188.765785 
L 393.630236 194.213762 
L 402.88252 199.937573 
L 412.134803 205.932135 
L 421.387087 212.192488 
L 430.63937 218.713791 
L 439.891654 225.491321 
L 442.204724 227.225197 
L 442.204724 227.225197 
" clip-path="url(#pf02eeda1f2)" style="fill: none; stroke-dasharray: 6.66,2.88; stroke-dashoffset: 0; stroke: #e69f00; stroke-width: 1.8"/>
   </g>
   <g id="line2d_16">
    <path d="M 56.692913 227.225197 
L 65.945197 223.204785 
L 75.19748 219.409934 
L 84.449764 215.83825 
L 93.702047 212.487376 
L 102.954331 209.354984 
L 112.977638 206.205451 
L 123.000945 203.306766 
L 133.024252 200.656098 
L 143.047559 198.25066 
L 153.070866 196.087704 
L 163.094173 194.164526 
L 173.11748 192.478459 
L 183.140787 191.026877 
L 193.164094 189.807192 
L 203.187402 188.816855 
L 213.210709 188.053354 
L 223.234016 187.514213 
L 233.257323 187.196991 
L 243.28063 187.099284 
L 253.303937 187.218722 
L 263.327244 187.552969 
L 273.350551 188.099722 
L 283.373858 188.856711 
L 293.397165 189.821698 
L 304.191496 191.091 
L 314.985827 192.596257 
L 325.780157 194.334797 
L 336.574488 196.303985 
L 347.368819 198.501226 
L 358.16315 200.923967 
L 368.95748 203.569689 
L 379.751811 206.435911 
L 390.546142 209.520192 
L 402.111496 213.064021 
L 413.67685 216.852491 
L 425.242205 220.882733 
L 436.807559 225.151921 
L 442.204724 227.225197 
L 442.204724 227.225197 
" clip-path="url(#pf02eeda1f2)" style="fill: none; stroke-dasharray: 11.52,2.88,1.8,2.88; stroke-dashoffset: 0; stroke: #009e73; stroke-width: 1.8"/>
   </g>
   <g id="text_14">
    <text style="font-size: 6.8px; font-family: 'Arial', 'Helvetica', 'DejaVu Sans', sans-serif; text-anchor: end" x="428.711811" y="183.852909" transform="rotate(-0 428.711811 183.852909)">ε</text>
   </g>
   <g id="text_15">
    <text style="font-size: 6.8px; font-family: 'Arial', 'Helvetica', 'DejaVu Sans', sans-serif; text-anchor: start" x="314.523587" y="92.37536" transform="rotate(-20 314.523587 92.37536)">ε + αs</text>
   </g>
   <g id="text_16">
    <g id="patch_5">
     <path d="M 336.558694 217.306057 
L 362.805085 217.306057 
L 362.805085 210.15851 
L 336.558694 210.15851 
z
" style="fill: #ffffff; opacity: 0.68"/>
    </g>
    <text style="font-size: 6.3px; font-family: 'Arial', 'Helvetica', 'DejaVu Sans', sans-serif; text-anchor: middle; fill: #3e5f4c" x="349.68189" y="215.360932" transform="rotate(-0 349.68189 215.360932)">Both rise</text>
   </g>
   <g id="text_17">
    <g id="patch_6">
     <path d="M 317.830468 124.860496 
L 381.533312 124.860496 
L 381.533312 117.558402 
L 317.830468 117.558402 
z
" style="fill: #ffffff; opacity: 0.68"/>
    </g>
    <text style="font-size: 6.3px; font-family: 'Arial', 'Helvetica', 'DejaVu Sans', sans-serif; text-anchor: middle; fill: #6c5a2d" x="349.68189" y="122.841543" transform="rotate(-0 349.68189 122.841543)">Only real income rises</text>
   </g>
   <g id="text_18">
    <g id="patch_7">
     <path d="M 337.607546 63.101332 
L 361.756234 63.101332 
L 361.756234 55.953786 
L 337.607546 55.953786 
z
" style="fill: #ffffff; opacity: 0.68"/>
    </g>
    <text style="font-size: 6.3px; font-family: 'Arial', 'Helvetica', 'DejaVu Sans', sans-serif; text-anchor: middle; fill: #704a47" x="349.68189" y="61.156207" transform="rotate(-0 349.68189 61.156207)">Both fall</text>
   </g>
   <g id="text_19">
    <text style="font-weight: 600; font-size: 8.4px; font-family: 'Arial', 'Helvetica', 'DejaVu Sans', sans-serif; text-anchor: middle" x="249.448819" y="33.679528" transform="rotate(-0 249.448819 33.679528)">Local marginal income regions in the CES specialization</text>
   </g>
   <g id="line2d_17">
    <defs>
     <path id="m4095edbc56" d="M 0 2.3 
C 0.609967 2.3 1.195034 2.057657 1.626346 1.626346 
C 2.057657 1.195034 2.3 0.609967 2.3 0 
C 2.3 -0.609967 2.057657 -1.195034 1.626346 -1.626346 
C 1.195034 -2.057657 0.609967 -2.3 0 -2.3 
C -0.609967 -2.3 -1.195034 -2.057657 -1.626346 -1.626346 
C -2.057657 -1.195034 -2.3 -0.609967 -2.3 0 
C -2.3 0.609967 -2.057657 1.195034 -1.626346 1.626346 
C -1.195034 2.057657 -0.609967 2.3 0 2.3 
z
" style="stroke: #0072b2"/>
    </defs>
    <g clip-path="url(#pf02eeda1f2)">
     <use xlink:href="#m4095edbc56" x="229.304957" y="106.362026" style="fill: #ffffff; stroke: #0072b2"/>
    </g>
   </g>
   <g id="line2d_18">
    <defs>
     <path id="m8cc31bd45c" d="M -2.3 2.3 
L 2.3 2.3 
L 2.3 -2.3 
L -2.3 -2.3 
z
" style="stroke: #e69f00; stroke-linejoin: miter"/>
    </defs>
    <g clip-path="url(#pf02eeda1f2)">
     <use xlink:href="#m8cc31bd45c" x="235.545861" y="143.807447" style="fill: #ffffff; stroke: #e69f00; stroke-linejoin: miter"/>
    </g>
   </g>
   <g id="line2d_19">
    <defs>
     <path id="mf7a295bc73" d="M 0 3.252691 
L 3.252691 0 
L 0 -3.252691 
L -3.252691 0 
z
" style="stroke: #009e73; stroke-linejoin: miter"/>
    </defs>
    <g clip-path="url(#pf02eeda1f2)">
     <use xlink:href="#mf7a295bc73" x="242.761118" y="187.098992" style="fill: #ffffff; stroke: #009e73; stroke-linejoin: miter"/>
    </g>
   </g>
   <g id="legend_1">
    <g id="text_20">
     <text style="font-size: 6.6px; font-family: 'Arial', 'Helvetica', 'DejaVu Sans', sans-serif; text-anchor: start" x="62.542913" y="52.753684" transform="rotate(-0 62.542913 52.753684)">Local organizational capacity</text>
    </g>
    <g id="line2d_20">
     <path d="M 84.019976 58.795356 
L 92.469976 58.795356 
L 100.919976 58.795356 
" style="fill: none; stroke: #0072b2; stroke-width: 1.8; stroke-linecap: square"/>
    </g>
    <g id="text_21">
     <text style="font-size: 6.5px; font-family: 'Arial', 'Helvetica', 'DejaVu Sans', sans-serif; text-anchor: start" x="106.119976" y="61.070356" transform="rotate(-0 106.119976 61.070356)">κ = 0</text>
    </g>
    <g id="line2d_21">
     <path d="M 84.019976 67.014809 
L 92.469976 67.014809 
L 100.919976 67.014809 
" style="fill: none; stroke-dasharray: 6.66,2.88; stroke-dashoffset: 0; stroke: #e69f00; stroke-width: 1.8"/>
    </g>
    <g id="text_22">
     <text style="font-size: 6.5px; font-family: 'Arial', 'Helvetica', 'DejaVu Sans', sans-serif; text-anchor: start" x="106.119976" y="69.289809" transform="rotate(-0 106.119976 69.289809)">κ = 0.5</text>
    </g>
    <g id="line2d_22">
     <path d="M 84.019976 75.234262 
L 92.469976 75.234262 
L 100.919976 75.234262 
" style="fill: none; stroke-dasharray: 11.52,2.88,1.8,2.88; stroke-dashoffset: 0; stroke: #009e73; stroke-width: 1.8"/>
    </g>
    <g id="text_23">
     <text style="font-size: 6.5px; font-family: 'Arial', 'Helvetica', 'DejaVu Sans', sans-serif; text-anchor: start" x="106.119976" y="77.509262" transform="rotate(-0 106.119976 77.509262)">κ = 1</text>
    </g>
   </g>
  </g>
 </g>
 <defs>
  <clipPath id="pf02eeda1f2">
   <rect x="56.692913" y="42.179528" width="385.511811" height="185.045669"/>
  </clipPath>
 </defs>
</svg>
